<?xml version="1.0" encoding="utf-8"?>
<!-- Generator: Adobe Illustrator 27.1.1, SVG Export Plug-In . SVG Version: 6.00 Build 0)  -->
<svg version="1.1" id="Слой_1" xmlns="http://www.w3.org/2000/svg" xmlns:xlink="http://www.w3.org/1999/xlink" x="0px" y="0px"
	 viewBox="0 0 661.2 527.3" style="enable-background:new 0 0 661.2 527.3;" xml:space="preserve">
<style type="text/css">
	.st0{fill:none;}
	.st1{fill:#757B8C;}
	.st2{fill:#FFDD2D;}
	.st3{fill:#757C8D;}
	.st4{fill:#01082D;}
	.st5{fill:#B0B9C4;}
</style>
<g>
	<path class="st0" d="M166.1,220.8C166.1,220.8,166.1,220.8,166.1,220.8C166.1,220.8,166.1,220.8,166.1,220.8
		C166.1,220.8,166.1,220.8,166.1,220.8z"/>
	<path class="st0" d="M488.7,221.2c0.3,0,0.6,0,0.9-0.1c-0.2,0-0.3,0-0.5,0L488.7,221.2z"/>
	<path class="st0" d="M490,221c-0.1,0.1-0.2,0.1-0.4,0.1c0,0,0,0,0,0c0,0,0,0,0,0C489.7,221.1,489.8,221.1,490,221z"/>
	<path class="st0" d="M594.2,240.7L594.2,240.7c0.9,0,1.8-0.1,2.6-0.4l0,0C596,240.6,595.2,240.7,594.2,240.7z"/>
	<path class="st0" d="M162.9,224.1C162.9,224.1,162.9,224.2,162.9,224.1C162.9,224.2,162.9,224.1,162.9,224.1z"/>
	<path class="st0" d="M164.5,221.9C164.5,221.9,164.5,221.9,164.5,221.9C164.5,221.9,164.5,221.9,164.5,221.9z"/>
	<path class="st0" d="M163.6,222.8C163.6,222.8,163.6,222.8,163.6,222.8C163.6,222.8,163.6,222.8,163.6,222.8z"/>
	<path class="st0" d="M166.1,220.8C166.1,220.7,166.1,220.7,166.1,220.8L166.1,220.8C166.1,220.7,166.1,220.7,166.1,220.8z"/>
	<path class="st0" d="M163.2,223.3c0,0,0,0.1-0.1,0.1C163.2,223.4,163.2,223.4,163.2,223.3z"/>
	<path class="st0" d="M165.1,221.6C165,221.6,165,221.6,165.1,221.6C165,221.6,165,221.6,165.1,221.6z"/>
	<polygon class="st0" points="165.6,221.4 165.6,221.4 165.6,221.4 	"/>
	<path class="st0" d="M163.9,222.3C164,222.3,164,222.3,163.9,222.3C164,222.3,164,222.3,163.9,222.3z"/>
	<path class="st0" d="M162.8,225.2c0-0.1,0-0.1,0-0.2C162.8,225,162.8,225.1,162.8,225.2z"/>
	<g>
		<path class="st1" d="M137.4,342.8c7.6,4.5,9.6-3.5,12.4-10.4h-19.1C132.4,337.2,134.6,341.1,137.4,342.8z"/>
		<path class="st1" d="M321.9,209.2C321.9,209.2,321.9,209.2,321.9,209.2c0,0-2.6,0-4,1.4C319.3,209.2,321.9,209.2,321.9,209.2z"/>
		<path class="st1" d="M159.8,355.8H216c20.5-16.1,34.3-16.9,34.3-16.9l-0.2,0.3c0.2-0.2,0.3-0.3,0.3-0.3c0,0,0,0,0,0
			c0.2-0.4,0.4-0.7,0.6-1c0.2-0.4,0.4-0.8,0.6-1.2s0.4-0.8,0.5-1.2c0.2-0.4,0.3-0.8,0.4-1.1c0.1-0.4,0.2-0.7,0.3-1.1
			c0.1-0.3,0.1-0.6,0.2-0.8h-88.6C159.9,340.8,159.1,348.9,159.8,355.8z"/>
		<path class="st1" d="M315.1,216.9c0.3-0.2,0.6-0.5,0.8-0.8C315.7,216.4,315.4,216.7,315.1,216.9z"/>
		<path class="st1" d="M317.1,212.8c0,1.3-0.4,2.4-1.2,3.3C316.7,215.2,317.1,214.1,317.1,212.8c0-0.2,0-0.3,0-0.5
			C317.1,212.5,317.1,212.7,317.1,212.8z"/>
		<path class="st1" d="M315.7,205.7c-2.2,0.2-3.8,0.8-4.9,1.6C312,206.5,313.5,205.8,315.7,205.7c0.6,0,1.2,0,1.7,0.1
			C316.9,205.6,316.3,205.6,315.7,205.7z"/>
		<path class="st1" d="M308.1,211.9C308.1,211.9,308.1,211.8,308.1,211.9c0-0.2,0.1-0.3,0.1-0.5
			C308.2,211.6,308.2,211.7,308.1,211.9C308.1,211.8,308.1,211.9,308.1,211.9z"/>
		<path class="st1" d="M309.1,209.1c-0.2,0.3-0.4,0.6-0.5,1C308.8,209.8,308.9,209.5,309.1,209.1z"/>
		<path class="st1" d="M309.9,208.2c-0.3,0.3-0.5,0.6-0.7,1C309.3,208.8,309.6,208.5,309.9,208.2z"/>
		<path class="st1" d="M263.6,54.8H79.3H66.9c-5.7,0-10.3,4.6-10.3,10.3v0.4c0,4.7,3.2,8.7,7.6,9.9c0.9,0.2,1.8,0.4,2.7,0.4h196.7
			c5.7,0,10.3-4.6,10.3-10.3V65C273.9,59.4,269.3,54.8,263.6,54.8z"/>
		<path class="st1" d="M63.9,137.8c1,0.3,2,0.5,3,0.5h90.8c2.7-6.4,9.6-12.6,20.6-12.6c0,0,0,0,0,0c0,0,0,0,0,0
			c1-1.2,2.1-2.4,3.1-3.5c1.7-1.8,3.3-3.4,5-4.9H66.9c-1.1,0-2.1,0.2-3,0.5c-4.2,1.3-7.2,5.2-7.2,9.8v0.4
			C56.7,132.6,59.7,136.5,63.9,137.8z"/>
		<path class="st1" d="M180.7,222.1c-2.5-0.1-5.1-0.3-7.7-0.5C175.6,221.8,178.2,222,180.7,222.1z"/>
		<path class="st1" d="M105.5,282.4H66.9c-1.1,0-2.1,0.2-3,0.5c-4.2,1.3-7.2,5.2-7.2,9.8v0.4c0,4.6,3.1,8.5,7.2,9.8
			c1,0.3,2,0.5,3,0.5h42c-0.3-1-0.6-1.9-1-2.8C104.7,291.4,103.3,285.8,105.5,282.4z M67.5,300.2c-1.3,0-2.5-0.3-3.6-0.9
			c-2.3-1.3-3.8-3.7-3.8-6.5c0-2.8,1.5-5.2,3.8-6.5c1.1-0.6,2.3-0.9,3.6-0.9c4.1,0,7.4,3.3,7.4,7.4
			C74.9,296.9,71.6,300.2,67.5,300.2z"/>
		<path class="st1" d="M182.6,292.7c1.9,2.7,1.1,6-1.3,10.6h64.9c-0.2-0.4-0.4-0.8-0.6-1.2c-0.2-0.5-0.5-0.9-0.7-1.4
			c-0.3-0.5-0.5-0.9-0.8-1.4c-0.2-0.4-0.5-0.8-0.7-1.2c-0.2-0.4-0.4-0.8-0.7-1.1c-0.1-0.1-0.1-0.2-0.2-0.3
			c-23.1-1.2-39.5-6.8-51.1-14.3h-68.2c2.5,4.6,2.2,11.6,2,15.3c-0.1,1.9-0.1,3.8,0,5.7h31.3c0.2-3.6,0.7-6.9,2.1-9.4
			C163.5,285.4,178.4,286.6,182.6,292.7z"/>
		<path class="st1" d="M66.9,384.8c-1.1,0-2.1,0.2-3,0.5c-4.2,1.3-7.2,5.2-7.2,9.8v0.4c0,4.6,3.1,8.5,7.2,9.8c1,0.3,2,0.5,3,0.5
			h25.3c-1.5-5.8-2.4-12.3-5-20.9H66.9z"/>
		<path class="st1" d="M177.6,397.8c3.3-4.7,6.5-9,9.7-13h-13.1C176.5,389.3,177.5,393.7,177.6,397.8z"/>
		<path class="st1" d="M340.5,205.7c-0.4,0-0.7,0-1.1,0C339.8,205.6,340.2,205.6,340.5,205.7c5.9,0.4,7.3,4.3,7.6,6.1
			c0,0,0,0.1,0,0.1c0,0,0-0.1,0-0.1C347.8,209.9,346.4,206.1,340.5,205.7z"/>
		<path class="st1" d="M336.3,206.7c0.6-0.4,1.3-0.7,2-0.9C337.6,206,336.9,206.3,336.3,206.7z"/>
		<path class="st1" d="M346.9,216.3c-0.4,0.4-0.9,0.8-1.4,1.1C346,217.1,346.5,216.7,346.9,216.3z"/>
		<path class="st1" d="M334.6,208.6c-0.1,0.2-0.1,0.4-0.2,0.6c0,0,1.9,0,3.3,0.8c-1.4-0.8-3.3-0.9-3.3-0.9
			C334.4,209,334.5,208.8,334.6,208.6z"/>
		<path class="st1" d="M594.2,54.8h-12.7h-184c-5.7,0-10.3,4.6-10.3,10.3v0.4c0,5.7,4.6,10.3,10.3,10.3h196.7c0.8,0,1.6-0.1,2.4-0.3
			c4.5-1.1,7.9-5.1,7.9-10V65C604.5,59.4,599.9,54.8,594.2,54.8z M595.8,71.6c-0.8,0.3-1.7,0.5-2.6,0.5c-4.1,0-7.4-3.3-7.4-7.4
			c0-2.2,0.9-4.1,2.4-5.5c1.3-1.2,3-1.9,4.9-1.9c4.1,0,7.4,3.3,7.4,7.4C600.6,67.9,598.6,70.6,595.8,71.6z"/>
		<path class="st1" d="M596.9,117.7c-0.8-0.2-1.7-0.4-2.6-0.4H469.7c1.7,1.5,3.4,3.1,5,4.9c1.1,1.1,2.1,2.3,3.1,3.5h0c0,0,0,0,0,0
			c11.1,0,17.9,6.2,20.6,12.6h95.7c0.9,0,1.8-0.1,2.6-0.4c4.4-1.2,7.6-5.2,7.6-9.9v-0.4C604.5,122.9,601.3,118.9,596.9,117.7z"/>
		<path class="st1" d="M598.2,220.6c-0.4-0.2-0.9-0.3-1.3-0.4c-0.8-0.2-1.7-0.4-2.6-0.4H490.7c-0.2,0.4-0.3,0.7-0.4,0.9
			c-0.1,0.1-0.2,0.2-0.3,0.3c-0.1,0.1-0.2,0.1-0.4,0.1c0,0,0,0,0,0c1.3,0.1,4.3,0.9,3.9,5c-0.1,1.4,0,7-1.3,14.6h102.1
			c0.9,0,1.8-0.1,2.6-0.4c1.1-0.3,2.2-0.8,3.1-1.4c0.5-0.4,1.1-0.8,1.5-1.3c0.2-0.2,0.5-0.5,0.7-0.7c0.6-0.8,1.1-1.6,1.5-2.5
			c0.5-1.2,0.8-2.6,0.8-4v-0.4c0-1.4-0.3-2.8-0.8-4C602.7,223.6,600.7,221.7,598.2,220.6z"/>
		<path class="st1" d="M483.3,221.6c-3.6,0.3-7,0.5-10.3,0.6C476.3,222.1,479.7,221.9,483.3,221.6z"/>
		<path class="st1" d="M596.9,282.7c-0.8-0.2-1.7-0.4-2.6-0.4H464.8c-12.2,7.9-29.6,13.7-54.6,14.5c-1.2,2.1-2.4,4.2-3.5,6.5h187.6
			c0.9,0,1.8-0.1,2.6-0.4c4.4-1.2,7.6-5.2,7.6-9.9v-0.4C604.5,287.9,601.3,283.9,596.9,282.7z"/>
		<path class="st1" d="M596.9,385.2c-0.8-0.2-1.7-0.4-2.6-0.4H465.6c4.9,6.1,9.9,13.1,15.1,20.9h113.5c0.9,0,1.8-0.1,2.6-0.4
			c4.4-1.2,7.6-5.2,7.6-9.9v-0.4C604.5,390.4,601.3,386.4,596.9,385.2z M596.9,401.7c-1.1,0.6-2.3,1-3.7,1c-4.1,0-7.4-3.3-7.4-7.4
			c0-4.1,3.3-7.4,7.4-7.4c1.3,0,2.6,0.4,3.7,1c2.2,1.3,3.7,3.7,3.7,6.4S599.1,400.4,596.9,401.7z"/>
		<path class="st1" d="M63.9,240.3c1,0.3,2,0.5,3,0.5h97.2c-1.4-7.6-1.2-13.2-1.3-14.6c0-0.3,0-0.7,0-1c0-0.1,0-0.1,0-0.2
			c0-0.3,0.1-0.6,0.1-0.8c0,0,0,0,0,0c0.1-0.2,0.1-0.4,0.2-0.6c0,0,0-0.1,0.1-0.1c0.1-0.2,0.2-0.4,0.3-0.5c0,0,0,0,0,0
			c0.1-0.2,0.2-0.3,0.4-0.4c0,0,0.1-0.1,0.1-0.1c0.1-0.1,0.3-0.2,0.4-0.3c0,0,0,0,0.1,0c0.1-0.1,0.3-0.2,0.4-0.2c0,0,0.1,0,0.1,0
			c0.2-0.1,0.3-0.1,0.5-0.2c0,0,0,0,0,0l0,0c0.4-0.1,0.9-0.2,1.2-0.3c-0.4,0-0.6-0.2-0.6-0.4c0,0,0,0,0,0c0,0,0,0,0,0c0,0,0,0,0,0
			c0,0,0,0,0,0l0,0l-0.4-0.9H66.9c-1.1,0-2.1,0.2-3,0.5c-4.2,1.3-7.2,5.2-7.2,9.8v0.4C56.7,235.1,59.7,239,63.9,240.3z"/>
	</g>
	<g>
		<path class="st2" d="M199.7,184.3c0-10.9,5.7-20.2,13.5-22.8c-20.2-8.6-40.5-11.7-47.1-9.8c-2,5.4-3,10.7-3.4,15.7
			c-0.7,8.9,0.6,17,2.5,23.4c0.9,3.2,1.9,5.9,2.8,8.2c0.2,0.1,0.3,0.2,0.4,0.4c1.2,4.2,20.9,6.4,41.7,6.4
			C204,201.9,199.7,193.7,199.7,184.3z"/>
		<path class="st2" d="M254.7,200.5c1.9-1.2,2.9-3.2,1.7-5.3c-5.2-9.1-13.4-16.8-22.9-23c1.6,3.5,2.6,7.7,2.6,12.1
			c0,9.1-3.9,16.9-9.7,20.9c10.7-0.6,20.4-1.9,26.4-3.8C253.5,201.2,254.1,200.9,254.7,200.5z"/>
		<path class="st2" d="M465.6,384.8c-10.4-13-20.2-22.4-28.7-29.1c-20.5-16.1-34.3-16.9-34.3-16.9c0,0-0.1,0.1-0.1,0.1
			c-3.6,4.7-8,8.6-13,11.8c-24.9,16-62.3,14.9-63.7,14.9v0c0,0,0,0,0,0c0,0,0,0,0,0v0c-1.5,0-37.8,1.1-62.3-14.9
			c-4.9-3.2-9.4-7.1-12.9-11.8c0,0,0,0,0,0c0,0-0.1,0.1-0.3,0.3l0.2-0.3c0,0-13.8,0.9-34.3,16.9c-8.6,6.7-18.3,16-28.7,29.1
			c-3.2,4-6.4,8.3-9.7,13c0.2,8.5-3.6,16-7.7,21.6l0.8,0.6l9.9,7.3l3.9,2.9l12.6,9.2l0,0c-6.8,22.9-11.8,49.6-13.1,79.9
			c-0.1,2.7-0.2,5.3-0.2,8.1h288.6c-0.1-2.7-0.1-5.4-0.3-8.1c-1.4-31-6.9-58.2-14.2-81.4l10.4-7.7l3.9-2.9l9.9-7.3l2.3-1.7l2.8-2.1
			c-2.2-3.7-4.4-7.2-6.6-10.5C475.6,397.9,470.5,391,465.6,384.8z M225,399.6c-1.5,2.4-3,4.8-4.5,7.2c-2.6,4.3-5.2,8.6-7.7,12.9
			c-2.5,4.3-5,8.7-7.4,13.1c-0.4,0.7-1.2,0.8-1.9,0.5c-0.7-0.4-0.8-1.3-0.5-1.9c1.3-2.5,2.7-4.9,4.1-7.4c2.5-4.3,5-8.7,7.5-13
			c2.6-4.3,5.2-8.6,7.9-12.8c0.4-0.7,1.2-0.9,1.9-0.5C225.2,398,225.4,399,225,399.6z M454.7,477c-0.7,0.2-1.5-0.3-1.7-1
			c-0.6-2.7-1.3-5.5-1.9-8.2c-1.2-4.9-2.4-9.7-3.7-14.5c-1.3-4.8-2.6-9.7-4.1-14.5c-0.2-0.7,0.3-1.5,1-1.7c0.7-0.2,1.5,0.3,1.7,1
			c0.8,2.7,1.6,5.4,2.3,8.1c1.3,4.8,2.6,9.6,3.8,14.5c1.2,4.9,2.4,9.7,3.5,14.6C455.9,476,455.5,476.8,454.7,477z"/>
		<path class="st2" d="M593.2,72.1c0.9,0,1.8-0.2,2.6-0.5c2.8-1,4.8-3.7,4.8-6.9c0-4.1-3.3-7.4-7.4-7.4c-1.9,0-3.6,0.7-4.9,1.9
			c-1.5,1.4-2.4,3.3-2.4,5.5C585.8,68.8,589.2,72.1,593.2,72.1z"/>
		<path class="st2" d="M67.5,285.5c-1.3,0-2.5,0.3-3.6,0.9c-2.3,1.3-3.8,3.7-3.8,6.5c0,2.8,1.5,5.2,3.8,6.5c1.1,0.6,2.3,0.9,3.6,0.9
			c4.1,0,7.4-3.3,7.4-7.4C74.9,288.8,71.6,285.5,67.5,285.5z"/>
		<path class="st2" d="M596.9,388.9c-1.1-0.6-2.3-1-3.7-1c-4.1,0-7.4,3.3-7.4,7.4c0,4.1,3.3,7.4,7.4,7.4c1.3,0,2.6-0.4,3.7-1
			c2.2-1.3,3.7-3.7,3.7-6.4S599.1,390.2,596.9,388.9z"/>
		<path class="st2" d="M490.1,151.6c-6.5-1.9-26.2,1.2-46,9.4c8.5,2,15,11.6,15,23.3c0,9.4-4.2,17.6-10.4,21.4
			c19.8-0.1,38-2.3,39.2-6.4c0.1-0.2,0.2-0.3,0.4-0.4c0.9-2.3,1.9-5,2.8-8.2c1.8-6.4,3.2-14.5,2.5-23.4
			C493.2,162.3,492.1,157,490.1,151.6z"/>
		<path class="st2" d="M401.6,200.5c0.6,0.4,1.2,0.7,1.9,0.9c6.6,2.1,17.4,3.4,29.2,3.9c-5.9-3.9-9.9-11.9-9.9-21.1
			c0-5.5,1.4-10.5,3.8-14.5c-11,6.6-20.8,15.1-26.7,25.4C398.7,197.3,399.7,199.3,401.6,200.5z"/>
	</g>
	<g>
		<path class="st3" d="M270.7,323.4c-0.3-1.7,2-4.1,1.5-5.8c-0.5-1.7-3.8-2.4-4.4-4.1c-0.6-1.6,1.3-4.4,0.6-6
			c-0.7-1.6-4.1-1.9-4.9-3.5c-0.8-1.6,0.8-4.5-0.1-6c-0.3-0.4-0.7-0.8-1.3-1l-10.2-0.1c-3.2,0-6.3-0.1-9.3-0.2
			c0.1,0.1,0.1,0.2,0.2,0.3c0.2,0.4,0.4,0.8,0.7,1.1c0.2,0.4,0.5,0.8,0.7,1.2c0.3,0.5,0.5,0.9,0.8,1.4c0.2,0.5,0.5,0.9,0.7,1.4
			c0.2,0.4,0.4,0.8,0.6,1.2c0.5,1.1,1.1,2.1,1.6,3.2c0.2,0.3,0.3,0.7,0.5,1c0.1,0.3,0.3,0.6,0.4,1c0.2,0.4,0.4,0.8,0.5,1.3
			c0.2,0.5,0.4,1,0.6,1.6c0.1,0.4,0.3,0.7,0.4,1.1c0.2,0.5,0.3,0.9,0.5,1.4c0.4,1.3,0.9,2.6,1.2,3.9c0.1,0.5,0.3,1,0.4,1.4
			c0.1,0.4,0.2,0.7,0.3,1.1c0.2,0.7,0.3,1.5,0.4,2.2c0.5,3.3,0.7,6.6,0.2,9.7c0,0.1,0,0.1,0,0.2c0,0.3-0.1,0.6-0.2,0.8
			c-0.1,0.4-0.2,0.7-0.3,1.1c-0.1,0.4-0.3,0.7-0.4,1.1c-0.2,0.4-0.3,0.8-0.5,1.2s-0.4,0.8-0.6,1.2c-0.2,0.3-0.4,0.7-0.6,1
			c3.6,4.7,8,8.6,12.9,11.8c0,0,0,0,0,0c5.7-6.5,7-12.9,7.6-17.3c0.3-1.7,3.2-3.3,3.1-5.1C274,326.6,271,325.1,270.7,323.4z"/>
		<path class="st3" d="M332.1,297.4l-3,0l-0.6,0v0l-0.3,0l-0.3,0v0l-0.6,0l-3,0l0,0l-27.9-0.1c3.3,2.9,6.1,5.7,8.5,8.2
			c3.3,3.5,5.6,6.5,6.7,8.5c3.8,7.2,9.4,13.2,16.4,14.6c0.2,0.1,0.4,0.1,0.7,0c7-1.3,12.6-7.4,16.4-14.6c1.1-2,3.4-5,6.7-8.5
			c2.4-2.5,5.2-5.3,8.5-8.2L332.1,297.4L332.1,297.4z"/>
		<path class="st3" d="M159.7,447.4h-7.3c0.5,2.4,1.5,5,3.5,7.6c0.4,0.5,0.7,1,1.1,1.7c3.1,5.5,5.1,15.8,6.5,27.2
			c1.4-2.2,3-4.3,3.5-6.6c0.8-4-1.4-8.5-0.5-12.2c1-4,5.1-7,6.1-10.5c1.1-4-0.7-8.7,0.4-12.2c1.3-4,5.6-6.7,6.9-10
			c0.6-1.6,0.8-3.4,0.8-5.1l-9.9-7.3C168.3,424.6,164.1,433.5,159.7,447.4z"/>
		<path class="st3" d="M153.8,349.7c-2.1-2.7-11.1-2.1-18-0.1c6.1,1,13.2,5.1,20.2,11.5C155.5,356,155.2,351.5,153.8,349.7z"/>
		<path class="st3" d="M146.3,377.6c0.2,0.4,0.4,0.7,0.5,1.1c0.6,1.9,0.2,3.9-1.3,5.3c-0.1,0.1-0.2,0.2-0.4,0.2
			c-0.1,0.1-0.2,0.2-0.3,0.2c-1.7,0.7-3.3,1.6-4.9,2.6c-0.2,0.1-0.4,0.3-0.5,0.4c5-0.9,9.7-1.2,9.9-3.5
			C149.7,381.3,148,379.1,146.3,377.6z"/>
		<path class="st3" d="M113.9,382.9c-0.1-2,1-6.9,0.5-11.8c-0.6-5.7-3.4-11.4-13.1-11.9c-1.4-0.1-2.6,0-3.7,0.1
			c-5.8,0.8-8.8,4.4-10.2,8.2c1.3-1.8,2.9-3.1,4.4-4.1c4.2-2.6,9.7,0.4,9.7,5.4c0,1.1-1,8.6,2,10.4c2.5,1.5,7.4,6.8,6.7,16.1
			c0,0.1,0.1,0.3,0.1,0.4c0.8,1.9,2.6,3.2,4.6,3.3c2.5-0.3,3.6-0.9,4.1-2c0.3-0.7,0.4-1.5,0.6-2.5c0.2-1.4-0.6-2.8-1.6-4.2
			C116.4,388,114,385.6,113.9,382.9z"/>
		<path class="st3" d="M652.3,8.9C646.7,3.4,639.1,0,630.7,0H361.1c-16.8,0-30.5,13.6-30.5,30.5c0-16.8-13.6-30.5-30.5-30.5H30.5
			c-8.4,0-16,3.4-21.5,8.9C3.4,14.4,0,22.1,0,30.5v466.4c0,16.4,13,29.8,29.3,30.4h78.3h5.7c0.6-3,2.2-6.1,2-8.9
			c-0.3-4-3.6-7.8-3.7-11.6c-0.1-4.1,3-8,2.9-11.8c0-4.1-3.1-8-3-11.8c0.1-4.1,3.5-7.9,3.7-11.6c0.3-4.1-2.6-8.3-2.2-12
			c0.3-3.3,1.3-6.1,1.9-8.8c0.2-0.7,0.3-1.4,0.4-2.2c0.6-4.3-6.5-10.6-5.8-14c0.9-4.3-7.5-9.3-9.6-10.1c0,0,0,0,0,0
			c1.9,5.3,4.1,13,5.6,22.8H66.9c-1.1,0-2.1,0.2-3,0.5c-4.2,1.3-7.2,5.2-7.2,9.8v0.4c0,4.6,3.1,8.5,7.2,9.8c1,0.3,2,0.5,3,0.5h40.4
			c0.1,1.7,0.2,3.3,0.4,4.7c-0.6,3.6-0.8,13.1-0.7,24.3H65.4H41.7c-9.1,0-16.6-7.4-16.6-16.6v-46v-16.5v-46
			c0-9.1,7.4-16.6,16.6-16.6h22.2h35.8c-0.1,0.1-0.1,0.2-0.2,0.3l-1.6,2.8c1.2-1.4,5-5.5,6.8-4.2c1,0.7,2.2,0.5,3.2,0
			c0.7-0.3,1.6-0.2,2.1,0.3c0.3,0.3,0.7,0.6,1.2,0.8c5.6,2.6,4.6,6.6,4.6,6.6s0.4,11.7,3.8,13.8c0.5,0.3,3.1,3.5,4,8.6
			c0.7,3.8-0.6,4.3,0.1,9.7c0.2,1.7,1.3,3,2.7,3.9c-0.2-3.5,1.1-5.8,3.1-7.4c1.5-1.2,3.3-1.9,5.3-2.5c0.1-0.1,0.2-0.2,0.3-0.3
			c2.5-2.3,5.4-4.2,8.6-5.6c0.1,0,0.1,0,0.2,0c0,0,0-0.1,0-0.1c0.1-0.1,0.2-0.2,0.2-0.2c0,0,0,0,0.1-0.1c0.1-0.1,0.2-0.3,0.3-0.4
			c0-0.1,0.1-0.2,0.1-0.2c0,0,0-0.1,0-0.1c0.1-0.2,0.1-0.3,0.1-0.5c0,0,0-0.2,0-0.2c0-0.1,0-0.2,0-0.2c0-0.2,0-0.4,0-0.5
			c0,0,0,0,0,0c0,0,0-0.1,0-0.1c0-0.1,0-0.2-0.1-0.3c0-0.2-0.1-0.3-0.2-0.5c0,0,0-0.1-0.1-0.1c0-0.1-0.1-0.2-0.1-0.2
			c-0.1-0.2-0.2-0.3-0.3-0.5c0-0.1-0.1-0.1-0.1-0.2c0,0-0.1-0.1-0.1-0.1c0,0,0-0.1-0.1-0.1c0,0-0.1-0.1-0.1-0.1
			c-0.1-0.1-0.1-0.1-0.2-0.2c-0.4-0.5-0.8-0.9-1.3-1.3c-1.5,0.5-3,0.9-4.5,1.3c-2.9,0.7-5.9,1-8.8,0.3c-0.6-0.1-1.3-0.3-1.9-0.6
			c-1.9-0.8-3.6-2-4.8-3.6c-0.4-0.5-0.1-1.2,0.4-1.5c0.5-0.3,1.1-0.1,1.5,0.4c0,0,0,0.1,0.1,0.1c0,0,0,0,0,0c0,0.1,0.1,0.1,0.1,0.2
			c0.1,0.1,0.2,0.2,0.3,0.3c0.2,0.2,0.5,0.5,0.7,0.7c0.1,0.1,0.1,0.1,0.2,0.2c0,0,0,0,0,0c0.1,0.1,0.3,0.2,0.4,0.3
			c0.3,0.2,0.6,0.4,0.9,0.5c0,0,0,0,0,0c0.1,0.1,0.3,0.1,0.4,0.2c0.1,0,0.1,0.1,0.2,0.1c0,0,0,0,0,0c0.3,0.1,0.5,0.2,0.8,0.3
			c0.5,0.2,1.1,0.3,1.7,0.4c0.2,0,0.4,0.1,0.5,0.1c0,0,0,0,0,0c0,0,0,0,0,0c0,0,0.1,0,0.2,0c0.3,0,0.6,0.1,0.9,0.1
			c0.7,0,1.4,0,2.1,0c0.1,0,0.2,0,0.3,0c-2.8-0.4-5.1-1.3-7-2.7c-7.6-5.5-8-17.4-0.3-22.2c0.2-0.1,0.3-0.2,0.5-0.3
			c-1.4-3.6-3.9-6.4-7.9-7.5c-0.7-0.2-1.5-0.3-2.2-0.4c0.3-2.8,0.1-6.4-0.5-10.5H63.9H41.7c-9.1,0-16.6-7.4-16.6-16.6v-46v-16.5v-46
			c0-9.1,7.4-16.6,16.6-16.6h22.2h101.3c-1.8-6.4-3.2-14.5-2.5-23.4H63.9H41.7c-9.1,0-16.6-7.4-16.6-16.6v-46V88.3v-46
			c0-9.1,7.4-16.6,16.6-16.6H137h151.8c9.1,0,16.6,7.4,16.6,16.6v5.5v5.1v35.4v14.5c6.7-1.2,14.2-2,22.4-2.1v0c0.1,0,0.2,0,0.3,0
			c0.1,0,0.2,0,0.3,0v0c0.7,0,1.4,0,2.1,0c9.4,0.2,17.9,1.4,25.2,3V88.3V52.8v-5.3v-5.2c0-9.1,7.4-16.6,16.6-16.6h151h96.2
			c9.1,0,16.6,7.4,16.6,16.6v46v16.5v46c0,9.1-7.4,16.6-16.6,16.6h-22.6H493.5c0.7,8.9-0.6,17-2.5,23.4h105.8h22.6h0
			c0.6,0,1.1,0,1.7,0.1c0.7,0.1,1.4,0.2,2.1,0.4c0.9,0.2,1.8,0.5,2.7,0.9c0.5,0.2,1,0.4,1.4,0.7c0.7,0.4,1.4,0.8,2,1.3
			c0.6,0.5,1.2,1,1.8,1.6c0.4,0.4,0.7,0.8,1.1,1.2c0.7,0.8,1.3,1.7,1.8,2.6c0.3,0.5,0.5,1,0.7,1.4c0.4,1,0.7,2,1,3.1
			c0.2,1.1,0.3,2.2,0.3,3.3v46v16.5v46c0,9.1-7.4,16.6-16.6,16.6h-22.6H399.7c0-0.1,0-0.1,0-0.2c-1.3-9.1,2.3-19.6,7-28.9
			c1.1-2.2,2.3-4.4,3.5-6.5c-1.9,0.1-3.8,0.1-5.8,0.1l-13.7,0.1c-0.5,0.3-1,0.6-1.2,1c-0.9,1.5,0.8,4.4-0.1,6
			c-0.8,1.5-4.2,1.9-4.9,3.5c-0.7,1.6,1.2,4.3,0.6,6c-0.6,1.7-3.9,2.4-4.4,4.1c-0.5,1.7,1.8,4.1,1.5,5.8c-0.3,1.8-3.4,3.2-3.4,4.9
			c-0.1,1.8,2.8,3.4,3.1,5.1c0.6,4.3,2,10.7,7.6,17.3c0,0,0,0,0,0c5-3.2,9.4-7.1,13-11.8c0,0,0.1-0.1,0.1-0.1
			c0,0,13.8,0.9,34.3,16.9h160h22.6c9.1,0,16.6,7.4,16.6,16.6v46v16.5v46c0,9.1-7.4,16.6-16.6,16.6h-24h-91.4
			c-1.5-10.9-3.4-20.6-5.3-29.1h95.5c0.9,0,1.8-0.1,2.6-0.4c4.4-1.2,7.6-5.2,7.6-9.9v-0.4c0-4.8-3.2-8.7-7.6-9.9
			c-0.8-0.2-1.7-0.4-2.6-0.4H493.2c-4.4-13.9-8.6-22.8-11-27.4l-9.9,7.3c0,1.7,0.2,3.5,0.8,5.1c1.3,3.4,5.6,6,6.9,10
			c1.1,3.5-0.7,8.2,0.4,12.2c1,3.6,5.1,6.6,6.1,10.5c0.9,3.6-1.3,8.2-0.5,12.2c0.8,3.7,4.6,6.9,5.4,10.9c0.7,3.7-1.8,8.1-1.2,12.1
			c0.6,3.8,4.2,7.2,4.7,11.2c0.5,3.8-2.2,8-1.9,12c0.1,1.3,0.6,2.6,1.2,3.8h13.1h124.6c16.3-0.6,29.3-14,29.3-30.4V30.5
			C661.2,22.1,657.8,14.4,652.3,8.9z"/>
	</g>
	<path d="M263,178.8C263,178.8,263,178.8,263,178.8C262.8,178.5,262.9,178.7,263,178.8z"/>
	<path d="M218.2,144.3C218.2,144.3,218.2,144.3,218.2,144.3L218.2,144.3C218.5,144.4,218,144.2,218.2,144.3z"/>
	<path d="M262.4,178c0.2,0.2,0.3,0.4,0.5,0.7c0,0,0.1,0.1,0.1,0.1c-0.1-0.1-0.2-0.2,0,0c0,0,0,0,0,0c0,0,0,0,0,0
		c0.1,0.1,0.2,0.3,0.3,0.4c0.7,1,1.5,2,2.2,3c0.3,0.5,0.7,1,1,1.5c0.4,0.6,1.2,0.9,1.8,0.5c0.6-0.4,0.9-1.2,0.5-1.8
		c-2.8-4.1-5.9-8.1-9.3-11.8c-3.3-3.6-6.8-7.1-10.5-10.2c-3.8-3.2-7.8-6.3-12-9c-4.1-2.7-8.4-5.1-12.8-7.2c-4.5-2.2-9.2-4-14-5.6
		c-0.6-0.2-1.1-0.4-1.7-0.5c-0.7-0.2-1.4,0.2-1.6,0.9c-0.2,0.7,0.2,1.4,0.9,1.6c2.3,0.7,4.7,1.5,7,2.4c1.1,0.4,2.3,0.9,3.4,1.4
		c0.1,0,0.1,0,0.2,0.1c0,0,0,0,0,0c-0.2-0.1,0.3,0.1,0,0l0,0c0.1,0.1,0.3,0.1,0.4,0.2c0.3,0.1,0.6,0.2,0.9,0.4
		c0.6,0.2,1.1,0.5,1.7,0.8c4.4,2,8.7,4.4,12.9,7c2.1,1.3,4.1,2.7,6.1,4.1c1,0.7,2,1.4,2.9,2.2c-0.2-0.2,0.2,0.1,0,0c0,0,0,0,0,0
		c0,0,0,0,0,0c0,0,0.1,0.1,0.1,0.1c0.1,0.1,0.2,0.2,0.4,0.3c0.2,0.2,0.5,0.4,0.7,0.6c0.5,0.4,0.9,0.7,1.4,1.1
		c3.8,3.1,7.3,6.5,10.7,10c1.7,1.8,3.3,3.6,4.8,5.5C261.6,177,262,177.5,262.4,178z"/>
	<path d="M243,158.8C243.1,158.8,243.1,158.8,243,158.8C243.2,159,242.8,158.7,243,158.8z"/>
	<path d="M96.5,374.7C96.5,374.7,96.5,374.7,96.5,374.7C96.5,374.8,96.5,374.7,96.5,374.7z"/>
	<path d="M100.2,378.6c0.1-0.6-0.2-1.1-0.8-1.3c0,0-0.1,0-0.1,0c0,0,0,0,0,0c-0.1,0-0.1,0,0,0c-0.1,0-0.1-0.1-0.2-0.1
		c-0.1-0.1-0.3-0.1-0.4-0.2c-0.1-0.1-0.3-0.2-0.4-0.3c0,0-0.2-0.1-0.2-0.1c0.1,0.1,0.1,0.1,0.1,0c0,0-0.1-0.1-0.1-0.1
		c-0.5-0.4-1-0.9-1.4-1.4c-0.1-0.1-0.2-0.2-0.3-0.4c0,0.1,0.1,0.1,0,0c0,0,0,0,0,0c0,0,0,0,0-0.1c0-0.1-0.1-0.1-0.1-0.2
		c-0.2-0.3-0.4-0.5-0.6-0.8c-0.5-0.7-0.9-1.3-1.4-2c-0.3-0.5-1-0.7-1.5-0.4c-0.5,0.3-0.7,1-0.4,1.5c1.1,1.6,2.2,3.3,3.5,4.7
		c1.4,0.3,2.6,0.8,3.4,1.9C99.8,379.2,100.1,378.9,100.2,378.6z"/>
	<path d="M99.4,377.2C99.4,377.2,99.4,377.2,99.4,377.2C99.3,377.2,99.3,377.2,99.4,377.2z"/>
	<path d="M96,377.4c0.8,0.8,1.7,1.5,2.9,1.9c0.2,0.1,0.3,0.1,0.5,0C98.6,378.3,97.4,377.7,96,377.4z"/>
	<path d="M97.1,379.3c-1.9,1.1-3.9,2.2-5.8,3.4c-0.5,0.3-0.7,1-0.4,1.5c0.3,0.5,1,0.7,1.5,0.4c1.9-1.1,3.9-2.2,5.8-3.4
		c0.5-0.3,0.7-1,0.4-1.5C98.2,379.2,97.6,379,97.1,379.3z"/>
	<path d="M121.8,297.6C121.8,297.6,121.8,297.6,121.8,297.6C121.8,297.6,121.8,297.6,121.8,297.6
		C121.8,297.6,121.8,297.6,121.8,297.6z"/>
	<path d="M121.4,298.4C121.4,298.4,121.4,298.5,121.4,298.4C121.3,298.5,121.3,298.5,121.4,298.4
		C121.3,298.6,121.3,298.5,121.4,298.4z"/>
	<path d="M120.5,299.3C120.5,299.3,120.5,299.3,120.5,299.3C120.5,299.3,120.5,299.3,120.5,299.3
		C120.6,299.2,120.6,299.2,120.5,299.3z"/>
	<path d="M121.8,297.6C121.8,297.6,121.8,297.6,121.8,297.6C121.8,297.7,121.8,297.7,121.8,297.6
		C121.8,297.7,121.8,297.7,121.8,297.6z"/>
	<path d="M121.8,297.7C121.8,297.7,121.8,297.7,121.8,297.7C121.8,297.7,121.8,297.7,121.8,297.7
		C121.8,297.6,121.8,297.6,121.8,297.7z"/>
	<path d="M123.1,296.9c-0.6-0.1-1.1,0.2-1.3,0.7c0,0.1,0,0.1,0,0.1c0,0,0,0,0,0.1c0,0.1-0.1,0.2-0.1,0.3c-0.1,0.2-0.2,0.3-0.3,0.4
		c0,0,0,0,0,0c-0.1,0.1-0.1,0.1,0,0c0,0,0,0,0,0c0,0,0,0.1-0.1,0.1c0,0.1-0.1,0.1-0.2,0.2c-0.1,0.1-0.3,0.3-0.4,0.4
		c0,0-0.1,0.1-0.2,0.1c0,0,0,0,0,0c0.1-0.1,0.1-0.1,0,0c0,0,0,0,0,0c0,0-0.1,0.1-0.1,0.1c-0.1,0.1-0.3,0.2-0.5,0.3
		c-0.2,0.1-0.4,0.2-0.6,0.3c0,0,0,0-0.1,0c0,0,0,0,0,0c-0.2,0.1-0.1,0,0,0c-0.1,0-0.2,0.1-0.3,0.1c-0.4,0.2-0.9,0.3-1.3,0.4
		c-0.1,0-0.2,0-0.3,0.1c0,0-0.2,0-0.3,0c0,0,0,0,0.1,0c-0.1,0-0.1,0-0.1,0c-0.2,0-0.4,0-0.6,0.1c-1,0.1-2,0.1-3,0
		c-0.6,0-1.1,0.5-1.1,1.1c0,0.6,0.5,1.1,1.1,1.1c2.1,0,4.3,0.1,6.2-0.7c1.8-0.7,3.3-2,4-3.8C124.1,297.7,123.7,297,123.1,296.9z"/>
	<path d="M119.4,299.9C119.4,299.9,119.4,299.9,119.4,299.9C119.3,300,119.2,300,119.4,299.9z"/>
	<path d="M117.3,300.5C117.3,300.5,117.3,300.5,117.3,300.5C117.2,300.5,117.2,300.5,117.3,300.5z"/>
	<path d="M170.1,309.2c0.5-0.2,0.7-1,0.4-1.5c-0.3-0.5-0.9-0.6-1.5-0.4c0.2-0.1-0.1,0-0.2,0.1c-0.1,0-0.2,0.1-0.3,0.1
		c-0.2,0.1-0.4,0.1-0.6,0.2c-0.4,0.1-0.8,0.2-1.2,0.3c-0.2,0-0.4,0.1-0.6,0.1c0,0,0,0,0.1,0c-0.1,0-0.1,0-0.1,0c0,0,0,0,0,0
		c0,0-0.1,0-0.1,0c-0.1,0-0.2,0-0.3,0c-0.4,0-0.8,0.1-1.2,0.1c-0.4,0-0.8,0-1.2-0.1c0,0-0.1,0-0.1,0c0,0,0,0,0,0c-0.2,0-0.1,0,0,0
		c-0.1,0-0.2,0-0.2,0c-0.2,0-0.4-0.1-0.6-0.1c-0.4-0.1-0.8-0.2-1.2-0.3c-0.2-0.1-0.4-0.1-0.6-0.2c-0.1,0-0.2-0.1-0.2-0.1
		c0.2,0.1-0.1,0-0.2-0.1c-0.5-0.2-1.2-0.2-1.5,0.4c-0.3,0.5-0.2,1.2,0.4,1.5c1.7,0.8,3.6,1.2,5.5,1.2
		C166.5,310.3,168.4,309.9,170.1,309.2z"/>
	<path d="M163.3,308.1C163.3,308.1,163.3,308.1,163.3,308.1C163.2,308.1,163.1,308.1,163.3,308.1z"/>
	<path d="M166.3,308.1C166.3,308.1,166.3,308.1,166.3,308.1C166.2,308.1,166.2,308.1,166.3,308.1
		C166.2,308.1,166.2,308.1,166.3,308.1z"/>
	<path d="M143.3,345.8c-0.1,0-0.1,0-0.1,0C143.2,345.8,143.3,345.8,143.3,345.8z"/>
	<path d="M137.6,345.1C137.6,345.1,137.5,345,137.6,345.1C137.4,345,137.7,345.1,137.6,345.1z"/>
	<path d="M145.8,345.1C145.8,345.1,145.8,345.1,145.8,345.1C145.8,345.1,145.8,345.1,145.8,345.1C145.6,345.2,146,345,145.8,345.1z"
		/>
	<path d="M147.6,344.1c-0.4,0.3-0.9,0.6-1.3,0.8c-0.1,0.1-0.2,0.1-0.3,0.2c0,0-0.1,0-0.1,0.1c0,0,0,0,0,0c0.1-0.1-0.2,0.1,0,0
		c0,0,0,0,0,0c-0.2,0.1-0.5,0.2-0.7,0.3c-0.5,0.2-1,0.3-1.5,0.4c-0.1,0-0.2,0-0.3,0.1c0,0,0,0-0.1,0c0,0-0.1,0-0.1,0
		c0,0,0.1,0,0.1,0c0,0,0,0,0,0c-0.3,0-0.5,0.1-0.8,0.1c-0.5,0-1,0-1.5,0c-0.1,0-0.7,0-0.7-0.1c0,0,0.1,0,0.1,0c0,0-0.1,0-0.1,0
		c0,0-0.1,0-0.1,0c-0.1,0-0.3,0-0.4-0.1c-0.5-0.1-0.9-0.2-1.4-0.4c-0.2-0.1-0.5-0.2-0.7-0.3c0,0,0,0,0,0c0,0,0,0,0,0
		c0.1,0.1-0.2-0.1,0,0c0,0-0.1,0-0.1-0.1c-0.1-0.1-0.3-0.1-0.4-0.2c-0.5-0.2-1-0.5-1.4-0.9c-0.1-0.1-0.2-0.1-0.3-0.2
		c0.1,0.1,0.2,0.2,0,0c0,0,0,0,0,0c0,0,0,0,0,0c-0.1,0-0.1-0.1-0.2-0.1c-0.2-0.2-0.4-0.4-0.6-0.6c-0.4-0.4-1.1-0.4-1.5,0
		c-0.4,0.4-0.4,1.1,0,1.5c3.2,3.2,8.1,4.3,12.4,3c1.2-0.3,2.3-0.9,3.4-1.6c0.5-0.3,0.7-1,0.4-1.5C148.8,344,148.1,343.7,147.6,344.1
		z"/>
	<path d="M135.3,343.7C135.3,343.7,135.3,343.7,135.3,343.7C135.4,343.9,135.4,343.8,135.3,343.7z"/>
	<path d="M130.7,376C130.9,376,130.8,376,130.7,376L130.7,376z"/>
	<path d="M127.6,375.1C127.6,375.1,127.6,375.1,127.6,375.1C127.8,375.2,127.7,375.2,127.6,375.1z"/>
	<path d="M131.7,376.1c-0.3,0-0.6,0-0.9-0.1c0,0-0.1,0-0.2,0c0,0,0,0,0,0c0.1,0,0.2,0.1,0,0c0,0,0,0,0,0c-0.2,0-0.4-0.1-0.5-0.1
		c-0.6-0.1-1.1-0.3-1.7-0.4c-0.3-0.1-0.5-0.2-0.8-0.3c0.1,0,0.2,0.1,0,0c0,0,0,0,0,0c0,0,0,0,0,0c-0.1,0-0.1-0.1-0.2-0.1
		c-0.1-0.1-0.3-0.1-0.4-0.2l-0.1,1.1l0.2,1.3c0.6,0.2,1.2,0.4,1.9,0.6c2.9,0.7,5.9,0.4,8.8-0.3c1.5-0.4,3-0.8,4.5-1.3
		c-0.1-0.1-0.3-0.3-0.4-0.4c-0.1-0.1-0.2-0.2-0.2-0.3c-2.8,0.6-5.4,0.7-7.6,0.4c-0.1,0-0.2,0-0.3,0
		C133.1,376.1,132.4,376.1,131.7,376.1z"/>
	<path d="M134.9,375.9C134.9,375.9,134.9,375.9,134.9,375.9C134.8,375.9,134.8,376,134.9,375.9z"/>
	<path d="M141.7,375.6c-0.2-0.4-0.1-0.9,0.2-1.2c0.4-0.5,1.1-0.4,1.5,0c0,0,0.1,0.1,0.1,0.1c-0.3-0.4-0.7-0.6-1.2-0.5
		c-1.4,0.5-2.9,0.9-4.4,1.3c-0.7,0.2-1.5,0.4-2.2,0.5c-0.2,0-0.4,0.1-0.5,0.1c-0.1,0-0.2,0-0.2,0c0,0-0.1,0-0.1,0c0,0,0,0,0,0
		c-0.1,0-0.1,0,0,0c-0.3,0-0.5,0.1-0.8,0.1C136.3,376.3,138.9,376.2,141.7,375.6z"/>
	<path d="M124.3,372.7C124.3,372.6,124.3,372.6,124.3,372.7C124.2,372.5,124.2,372.6,124.3,372.7z"/>
	<path d="M127,374.8C127,374.8,127,374.8,127,374.8c-0.3-0.2-0.6-0.3-0.9-0.5c-0.1-0.1-0.3-0.2-0.4-0.3c0,0,0,0,0,0c0,0,0,0,0,0
		c-0.2-0.1-0.1-0.1,0,0c-0.1-0.1-0.1-0.1-0.2-0.2c-0.3-0.2-0.5-0.4-0.7-0.7c-0.1-0.1-0.2-0.2-0.3-0.3c-0.1-0.1-0.1-0.1-0.1-0.2
		c0,0,0,0,0,0c0,0,0,0,0,0c-0.1-0.1-0.1-0.1,0,0c0,0,0-0.1-0.1-0.1c-0.3-0.5-1-0.7-1.5-0.4c-0.5,0.3-0.7,1-0.4,1.5
		c1.2,1.7,2.9,2.9,4.8,3.6l-0.2-1.3L127,374.8z"/>
	<path d="M125.7,374C125.7,374,125.7,374,125.7,374C125.6,374,125.5,373.9,125.7,374z"/>
	<path d="M144.9,384.5c0.1,0,0.2-0.1,0.3-0.2c-0.4,0.1-0.8,0.1-1.1-0.2c-0.4-0.4-0.4-1.1,0-1.5c-0.1,0-0.1,0-0.2,0
		c-3.2,1.3-6.1,3.3-8.6,5.6c-0.1,0.1-0.2,0.2-0.3,0.3c1.5-0.4,3.1-0.8,4.6-1c0.2-0.1,0.4-0.3,0.5-0.4
		C141.6,386.1,143.2,385.3,144.9,384.5z"/>
	<path d="M129.3,401.7C129.3,401.7,129.3,401.6,129.3,401.7C129.3,401.7,129.3,401.7,129.3,401.7z"/>
	<path d="M128.9,396.4c-1.1,2-1.9,4.3-1.8,6.6c0,0.6,0.5,1.1,1.1,1.1c0.6,0,1.1-0.5,1.1-1.1c0-0.4,0-0.9,0.1-1.3c0,0,0,0,0-0.1
		c0,0,0,0,0,0.1c0,0,0-0.2,0-0.2c0-0.1,0-0.2,0.1-0.3c0.1-0.2,0.1-0.5,0.2-0.7c0.1-0.5,0.3-0.9,0.5-1.3c0-0.1,0.1-0.3,0.1-0.1
		c0.1-0.1,0.1-0.2,0.2-0.3c0.1-0.2,0.2-0.5,0.3-0.7c0.7-1.5,1.6-2.9,2.6-4.2c0.1-0.1,0.1-0.2,0.2-0.2c0,0,0,0,0.1-0.1
		c-0.1,0.1,0-0.1,0-0.1c0,0,0,0,0,0.1c0,0,0,0,0,0c0.1-0.2,0.3-0.3,0.4-0.5c0.3-0.3,0.5-0.6,0.8-0.9c0.5-0.6,1.1-1.2,1.7-1.8
		c0.6-0.6,1.2-1.1,1.8-1.6c0.1-0.1,0.2-0.1,0.3-0.2c0,0,0.1-0.1,0.1-0.1c0,0,0,0,0,0c0,0-0.1,0,0,0c0.1-0.1,0,0,0,0
		c0,0,0.1-0.1,0.1-0.1c0.1-0.1,0.2-0.1,0.3-0.2c0.2-0.1,0.3-0.2,0.5-0.3c-1.5,0.3-3.1,0.6-4.6,1
		C132.5,390.8,130.4,393.5,128.9,396.4z"/>
	<path d="M133.4,393.4C133.4,393.3,133.4,393.3,133.4,393.4C133.5,393.3,133.3,393.4,133.4,393.4z"/>
	<path d="M138.6,388.2C138.5,388.3,138.5,388.2,138.6,388.2C138.6,388.2,138.7,388.1,138.6,388.2z"/>
	<path d="M144.6,379.1C144.6,379.1,144.7,379.1,144.6,379.1C144.6,379,144.6,379,144.6,379.1z"/>
	<path d="M144.7,381.5C144.7,381.6,144.7,381.6,144.7,381.5c0,0.1,0,0.1,0,0.1C144.7,381.6,144.7,381.6,144.7,381.5z"/>
	<path d="M144.9,380.8C144.9,380.8,144.9,380.8,144.9,380.8C144.9,380.9,144.9,380.9,144.9,380.8z"/>
	<path d="M144.9,380.1C144.9,380.1,144.9,380.1,144.9,380.1C144.9,380,144.9,380,144.9,380.1z"/>
	<path d="M144.3,382.2C144.3,382.3,144.3,382.3,144.3,382.2C144.4,382.1,144.4,382.2,144.3,382.2z"/>
	<path d="M144,377.9C143.9,377.9,143.9,377.9,144,377.9C143.9,377.9,143.9,377.9,144,377.9C144,378,144,378,144,377.9z"/>
	<path d="M143,376.1c-0.2,0.1-0.4,0.1-0.6,0.2c0.5,0.4,0.9,0.8,1.3,1.3c0.1,0.1,0.1,0.1,0.2,0.2c0,0,0.1,0.1,0.1,0.1c0,0,0,0,0,0
		c0,0.1,0,0,0,0c0,0,0,0,0,0c0,0,0,0,0.1,0.1c0,0,0.1,0.1,0.1,0.1c0.1,0.1,0.1,0.1,0.1,0.2c0.1,0.2,0.2,0.3,0.3,0.5
		c0,0.1,0.1,0.2,0.1,0.2c0,0,0,0,0,0.1c0,0,0,0,0-0.1c0,0,0,0.1,0.1,0.1c0.1,0.2,0.1,0.3,0.2,0.5c0,0.1,0,0.2,0.1,0.3
		c0,0,0,0.1,0,0.1c0-0.1,0-0.1,0,0c0,0,0,0,0,0c0,0,0,0,0,0c0,0.2,0,0.4,0,0.5c0,0,0,0.1,0,0.2c0,0,0,0,0,0c0,0.1,0,0,0,0
		c0,0,0,0.2,0,0.2c0,0.2-0.1,0.3-0.1,0.5c0,0,0,0.1,0,0.1c0,0,0,0,0-0.1c0,0,0,0.1,0,0.1c0,0,0,0,0,0c0,0.1-0.1,0.2-0.1,0.2
		c-0.1,0.1-0.2,0.3-0.3,0.4c0.1-0.1,0.1-0.1,0,0c0,0,0,0,0,0c0,0,0,0-0.1,0.1c-0.1,0.1-0.2,0.2-0.2,0.2c0,0,0,0.1,0,0.1
		c0.5-0.2,1-0.1,1.3,0.4c0.2,0.4,0.2,0.9-0.1,1.3c0.1-0.1,0.3-0.1,0.4-0.2c1.4-1.4,1.9-3.4,1.3-5.3c-0.1-0.4-0.3-0.8-0.5-1.1
		c-1-0.9-2.1-1.6-2.8-2C143.4,375.8,143.2,376,143,376.1z"/>
	<path d="M143.5,375.6c0.7,0.4,1.7,1,2.8,2c-0.7-1.2-1.7-2.2-2.8-3.2c0.1,0.1,0.1,0.2,0.1,0.3C143.8,375.1,143.7,375.4,143.5,375.6z
		"/>
	<path d="M143.5,375.6c-0.4-0.2-0.6-0.3-0.6-0.3c-0.4,0.1-0.8,0.2-1.2,0.3c0.1,0.1,0.1,0.2,0.2,0.3c0.1,0.1,0.3,0.3,0.4,0.4
		c0.2-0.1,0.4-0.1,0.6-0.2C143.2,376,143.4,375.8,143.5,375.6z"/>
	<path d="M141.9,374.4c-0.3,0.3-0.4,0.8-0.2,1.2c0.4-0.1,0.8-0.2,1.2-0.3c0,0,0.2,0.1,0.6,0.3c0.2-0.3,0.3-0.6,0.2-0.9
		c0-0.1-0.1-0.2-0.1-0.3c0,0-0.1-0.1-0.1-0.1C143,374,142.3,373.9,141.9,374.4z"/>
	<path d="M144,384.1c0.3,0.3,0.8,0.4,1.1,0.2c0.3-0.3,0.3-0.9,0.1-1.3c-0.3-0.5-0.8-0.6-1.3-0.4C143.6,383,143.6,383.7,144,384.1z"
		/>
	<g>
		<path class="st4" d="M157.8,138.3H66.9c-1.1,0-2.1-0.2-3-0.5c-4.2-1.3-7.2-5.2-7.2-9.8v-0.4c0-4.6,3.1-8.5,7.2-9.8
			c1-0.3,2-0.5,3-0.5h119.6c34.2-30.6,72.5-11,84.4-3.6c0.2,0.1,0.3,0.2,0.4,0.3c0,0,0,0,0,0c0,0,12.9-7.5,34-11.2V88.3V52.8v-5.1
			v-5.5c0-9.1-7.4-16.6-16.6-16.6H137H41.7c-9.1,0-16.6,7.4-16.6,16.6v46v16.5v46c0,9.1,7.4,16.6,16.6,16.6h22.2h98.8
			c0.4-5,1.4-10.3,3.4-15.7C157.3,154.2,154.4,146.1,157.8,138.3z M56.7,65c0-5.7,4.6-10.3,10.3-10.3h12.4h184.3
			c5.7,0,10.3,4.6,10.3,10.3v0.4c0,5.7-4.6,10.3-10.3,10.3H66.9c-0.9,0-1.8-0.1-2.7-0.4c-4.4-1.2-7.6-5.2-7.6-9.9V65z"/>
		<path class="st4" d="M156.6,303.3h-31.3c0,0.2,0,0.5,0.1,0.7c0.5,6.3,2,19,5.3,28.4h19.1c1-2.6,2.2-5.1,3.8-6.7
			C157.5,321.7,156.1,311.8,156.6,303.3z"/>
		<path class="st4" d="M252.6,320.3c-0.1-0.4-0.2-0.7-0.3-1.1c-0.1-0.5-0.2-1-0.4-1.4c-0.4-1.3-0.8-2.6-1.2-3.9
			c-0.2-0.5-0.3-0.9-0.5-1.4c-0.1-0.4-0.3-0.7-0.4-1.1c-0.2-0.5-0.4-1-0.6-1.6c-0.2-0.4-0.4-0.8-0.5-1.3c-0.1-0.3-0.3-0.6-0.4-1
			c-0.1-0.3-0.3-0.7-0.5-1c-0.5-1.1-1.1-2.2-1.6-3.2h-64.9c-3,5.8-8.6,13.7-14.4,25.2c-0.9,1.3-1.7,2.6-2.4,3.8h88.6
			c0-0.1,0-0.1,0-0.2c0.5-3.1,0.3-6.4-0.2-9.7C252.9,321.8,252.7,321,252.6,320.3z"/>
		<path class="st4" d="M159.8,355.8c0.5,5,1.9,9.4,3.3,12.7c3.9,4.6,7.5,9.8,10.7,15.6c0.1,0.3,0.3,0.5,0.4,0.8h13.1
			c10.4-13,20.2-22.4,28.7-29.1H159.8z"/>
		<path class="st4" d="M160.6,429.4c0,0-10.2,7.5-8.2,18h7.3c4.4-13.9,8.6-22.8,11-27.4l-0.8-0.6
			C165.4,425.6,160.6,429.4,160.6,429.4z"/>
		<path class="st4" d="M107.3,468.4H66.9c-1.1,0-2.1-0.2-3-0.5c-4.2-1.3-7.2-5.2-7.2-9.8v-0.4c0-4.6,3.1-8.5,7.2-9.8
			c1-0.3,2-0.5,3-0.5h38.7c-1.5-9.8-3.7-17.5-5.6-22.8c0,0,0,0,0,0c-1-2.7-1.9-4.8-2.5-6.3c-0.7-1.5-1.1-2.2-1.1-2.2l0,0
			c-2-3.4-3.2-6.7-4.2-10.3H66.9c-1.1,0-2.1-0.2-3-0.5c-4.2-1.3-7.2-5.2-7.2-9.8v-0.4c0-4.6,3.1-8.5,7.2-9.8c1-0.3,2-0.5,3-0.5h20.4
			c-0.1-0.3-0.1-0.5-0.2-0.8c-0.6-1.8-0.8-3.6-0.9-5.3l0,0c0,0-0.8-5.9,1.2-11.3c1.5-3.9,4.4-7.4,10.2-8.2l0.3-0.5l1.6-2.8
			c0.1-0.1,0.1-0.2,0.2-0.3H63.9H41.7c-9.1,0-16.6,7.4-16.6,16.6v46v16.5v46c0,9.1,7.4,16.6,16.6,16.6h23.7h41.7
			c-0.1-11.2,0-20.7,0.7-24.3C107.5,471.7,107.4,470.1,107.3,468.4z"/>
		<path class="st4" d="M619.4,25.7h-96.2h-151c-9.1,0-16.6,7.4-16.6,16.6v5.2v5.3v35.4v15.5c17.6,3.8,28.4,9.9,29,10.3
			c0.2-0.1,0.3-0.2,0.5-0.3c11.9-7.5,50.2-26.9,84.4,3.6h124.5c0.9,0,1.8,0.1,2.6,0.4c4.4,1.2,7.6,5.2,7.6,9.9v0.4
			c0,4.8-3.2,8.7-7.6,9.9c-0.8,0.2-1.7,0.4-2.6,0.4h-95.7c3.3,7.8,0.5,15.9-8.4,13.4c2,5.4,3,10.7,3.4,15.7h103.3h22.6
			c9.1,0,16.6-7.4,16.6-16.6v-46V88.3v-46C636,33.1,628.6,25.7,619.4,25.7z M604.5,65.4c0,4.9-3.4,8.9-7.9,10
			c-0.8,0.2-1.5,0.3-2.4,0.3H397.5c-5.7,0-10.3-4.6-10.3-10.3V65c0-5.7,4.6-10.3,10.3-10.3h184h12.7c5.7,0,10.3,4.6,10.3,10.3V65.4z
			"/>
		<path class="st4" d="M619.4,355.8h-22.6h-160c8.6,6.7,18.3,16,28.7,29.1h128.6c0.9,0,1.8,0.1,2.6,0.4c4.4,1.2,7.6,5.2,7.6,9.9v0.4
			c0,4.8-3.2,8.7-7.6,9.9c-0.8,0.2-1.7,0.4-2.6,0.4H480.7c2.2,3.3,4.4,6.8,6.6,10.5l-2.8,2.1l-2.3,1.7c2.5,4.6,6.7,13.4,11,27.4
			h101.1c0.9,0,1.8,0.1,2.6,0.4c4.4,1.2,7.6,5.2,7.6,9.9v0.4c0,4.8-3.2,8.7-7.6,9.9c-0.8,0.2-1.7,0.4-2.6,0.4h-95.5
			c1.9,8.5,3.8,18.2,5.3,29.1h91.4h24c9.1,0,16.6-7.4,16.6-16.6v-46v-16.5v-46C636,363.2,628.6,355.8,619.4,355.8z"/>
		<path class="st4" d="M167.7,253.3c-1.7-4.5-2.8-8.8-3.5-12.6H66.9c-1.1,0-2.1-0.2-3-0.5c-4.2-1.3-7.2-5.2-7.2-9.8v-0.4
			c0-4.6,3.1-8.5,7.2-9.8c1-0.3,2-0.5,3-0.5h98.7l0.4,0.9c0,0,0,0,0,0.1c0,0,0,0,0,0c0,0,0,0,0,0c0.1,0.1,0.2,0.3,0.6,0.4
			c0,0,0,0,0,0c0.3,0,0.6,0,0.9,0.1c1.8,0.2,3.6,0.3,5.4,0.4c2.7,0.2,5.2,0.3,7.7,0.5c0.8,0,1.6,0.1,2.5,0.1c0.7,0,1.4,0.1,2.1,0.1
			c29.2,1.2,46.1-1.7,55.8-5.4c0.7-0.3,1.3-0.5,1.9-0.8c0.4-0.2,0.8-0.3,1.2-0.5c1.1-0.5,2.1-1.1,3-1.6c0.6-0.4,1.1-0.7,1.6-1
			c0.8-0.5,1.4-1,2-1.5c0.5-0.1,0.9-0.3,1.4-0.4c-0.4,0.1-0.9,0.3-1.4,0.4c-14,4.2-39.5,7.5-75.4,5.1c-6-0.4-9.7-5.2-11.3-10.9
			c-0.1-0.4-0.2-0.8-0.3-1.1c-0.7-2.9-1.7-6.1,3.4-5.8c0.3,0,0.6,0,0.8,0.1c-0.9-2.3-1.9-5-2.8-8.2H63.9H41.7
			c-9.1,0-16.6,7.4-16.6,16.6v46v16.5v46c0,9.1,7.4,16.6,16.6,16.6h22.2h52.7c-1.4-9.1-4.7-20.3-7.7-29.1h-42c-1.1,0-2.1-0.2-3-0.5
			c-4.2-1.3-7.2-5.2-7.2-9.8v-0.4c0-4.6,3.1-8.5,7.2-9.8c1-0.3,2-0.5,3-0.5h38.5c1.3-2.1,3.9-3.4,8.2-4.3c5-0.8,7.9,1.2,9.6,4.3
			h68.2C178.6,274,171.6,263.2,167.7,253.3z"/>
		<path class="st4" d="M312.6,217.7c0.9,0,1.8-0.3,2.5-0.8c1.2-0.9,2-2.4,2-4.1c0-0.2,0-0.3,0-0.5c0-0.2,0-0.3,0.1-0.4
			c0.1-0.5,0.4-1,0.7-1.3c1.4-1.3,4-1.4,4-1.4c-0.1-0.8-0.7-1.5-1.4-2.1c-0.1-0.1-0.2-0.2-0.4-0.3c-0.3-0.2-0.7-0.4-1-0.6
			c-1.1-0.5-2.2-0.6-3.4-0.5c-2.2,0.2-3.8,0.8-4.9,1.6c-0.4,0.3-0.7,0.6-1,0.9c-0.6,0.6-1,1.3-1.2,1.9c-0.1,0.3-0.2,0.6-0.3,0.9
			c0,0.1-0.1,0.3-0.1,0.4c0,0.1-0.1,0.3-0.1,0.4c0,0,0,0.1,0,0.1c0,0,0,0,0,0c-0.1,0.5-0.1,0.9-0.1,0.9c0,1.2,0.4,2.3,1.1,3.2
			C309.9,217,311.2,217.7,312.6,217.7z"/>
		<path class="st4" d="M180.6,143.2c-7.2-0.8-14.4,1.7-14.4,8.4c6.6-1.9,26.9,1.3,47.1,9.8c-7.8,2.7-13.5,11.9-13.5,22.8
			c0,9.4,4.3,17.6,10.4,21.4c5.4,0,11-0.2,16.2-0.5c5.8-4,9.7-11.8,9.7-20.9c0-4.4-0.9-8.6-2.6-12.1c9.4,6.2,17.7,13.9,22.9,23
			c1.2,2.1,0.2,4.1-1.7,5.3c1.5,0.6,5.2,0.9,4.3-9C257.9,179.3,234.9,149.2,180.6,143.2z"/>
		<path class="st4" d="M634.7,200.8c-0.2-0.5-0.4-1-0.7-1.4c-0.5-0.9-1.1-1.8-1.8-2.6c-0.3-0.4-0.7-0.8-1.1-1.2
			c-1.1-1.1-2.4-2.1-3.8-2.9c-0.5-0.3-1-0.5-1.4-0.7c-0.9-0.4-1.8-0.6-2.7-0.9c-0.7-0.2-1.4-0.3-2.1-0.4c-0.6-0.1-1.1-0.1-1.7-0.1h0
			h-22.6H491.1c-0.9,3.2-1.9,5.9-2.8,8.2c0.3-0.1,0.6-0.1,0.8-0.1c5.1-0.3,4.1,2.9,3.4,5.8c-0.1,0.4-0.2,0.8-0.3,1.1
			c-1.6,5.7-5.3,10.5-11.3,10.9c-35.9,2.4-61.4-0.9-75.4-5.1c-0.4-0.1-0.9-0.3-1.3-0.4c0.4,0.1,0.9,0.3,1.3,0.4
			c0.2,0.2,0.5,0.4,0.8,0.7c0.1,0.1,0.2,0.2,0.3,0.3c0.4,0.3,0.8,0.6,1.2,0.8c0.6,0.4,1.2,0.8,1.9,1.1c0.4,0.2,0.9,0.5,1.3,0.7
			c0,0,0,0,0,0c8.8,4.4,26,8.5,60,7.2c0.7,0,1.3-0.1,2-0.1c3.3-0.1,6.7-0.4,10.3-0.6c1.8-0.1,3.5-0.3,5.4-0.4c0,0,0,0,0,0s0,0,0,0
			l0.4,0c0.2,0,0.3,0,0.5,0c0,0,0,0,0,0c0,0,0,0,0,0c0.1,0,0.3-0.1,0.4-0.1c0.1-0.1,0.2-0.2,0.3-0.3c0.1-0.2,0.3-0.5,0.4-0.9h103.6
			c0.5,0,0.9,0,1.4,0.1c0.4,0.1,0.9,0.2,1.3,0.3c0.5,0.1,0.9,0.3,1.3,0.4c2.5,1,4.4,3,5.5,5.5c0.1,0.3,0.2,0.6,0.3,0.9
			c0.3,1,0.5,2,0.5,3.1v0.4c0,1.4-0.3,2.8-0.8,4c-0.4,0.9-0.9,1.8-1.5,2.5c-0.2,0.3-0.4,0.5-0.7,0.7c-0.5,0.5-1,0.9-1.5,1.3
			c-0.9,0.6-2,1.1-3.1,1.4c-0.8,0.2-1.7,0.4-2.6,0.4h0H492.1c-0.7,3.8-1.8,8.1-3.5,12.6c-3.9,9.9-10.9,20.7-23.8,29.1h129.4
			c0.9,0,1.8,0.1,2.6,0.4c4.4,1.2,7.6,5.2,7.6,9.9v0.4c0,4.8-3.2,8.7-7.6,9.9c-0.8,0.2-1.7,0.4-2.6,0.4H406.7
			c-4.7,9.3-8.3,19.8-7,28.9c0,0.1,0,0.1,0,0.2h197.2h22.6c9.1,0,16.6-7.4,16.6-16.6v-46v-16.5v-46c0-1.1-0.1-2.3-0.3-3.3
			C635.4,202.9,635.1,201.8,634.7,200.8z"/>
		<path class="st4" d="M348.2,212c0,0,0-0.1,0-0.1c0,0,0-0.1,0-0.1c-0.3-1.9-1.7-5.7-7.6-6.1c-0.4,0-0.7,0-1.1,0
			c-0.4,0-0.7,0.1-1.1,0.2c-0.7,0.2-1.4,0.5-2,0.9c-0.2,0.1-0.3,0.2-0.5,0.4c-0.5,0.5-1,1-1.2,1.5c-0.1,0.2-0.1,0.4-0.2,0.6
			c0,0,3.3,0,4.4,2c0.1,0.1,0.1,0.3,0.2,0.4c0,0,0,0,0,0c0.1,0.2,0.1,0.4,0.1,0.5c0,0.2,0,0.4,0,0.6c0,0.3,0,0.5,0.1,0.7
			c0,0.2,0.1,0.5,0.2,0.7c0.1,0.5,0.3,0.9,0.6,1.3c0.2,0.3,0.3,0.5,0.5,0.7c0,0,0,0,0,0c0.8,0.9,2,1.4,3.2,1.4
			c0.6,0,1.2-0.1,1.8-0.4s1-0.6,1.4-1.1c0.4-0.4,0.7-1,1-1.6c0.1-0.3,0.2-0.6,0.3-0.9c0.1-0.3,0.1-0.7,0.1-1v0c0,0,0-0.1,0-0.2
			C348.2,212.5,348.2,212.3,348.2,212z"/>
		<path class="st4" d="M475.7,143.2c-54.4,6-77.3,36.1-78.4,48.4c-0.9,9.9,2.8,9.5,4.3,9c-1.9-1.2-2.9-3.2-1.7-5.3
			c5.9-10.3,15.7-18.8,26.7-25.4c-2.4,4-3.8,9-3.8,14.5c0,9.2,4,17.1,9.9,21.1c5.3,0.3,10.7,0.4,16,0.3c6.1-3.8,10.4-11.9,10.4-21.4
			c0-11.6-6.5-21.3-15-23.3c19.9-8.2,39.5-11.3,46-9.4C490.1,144.9,482.9,142.4,475.7,143.2z"/>
		<path class="st4" d="M224.5,397.7c-0.7-0.4-1.5-0.2-1.9,0.5c-2.7,4.2-5.3,8.5-7.9,12.8c-2.6,4.3-5.1,8.6-7.5,13
			c-1.4,2.5-2.7,4.9-4.1,7.4c-0.3,0.6-0.2,1.5,0.5,1.9c0.6,0.3,1.5,0.2,1.9-0.5c2.4-4.4,4.9-8.8,7.4-13.1c2.5-4.3,5.1-8.6,7.7-12.9
			c1.5-2.4,3-4.8,4.5-7.2C225.4,399,225.2,398,224.5,397.7z"/>
		<path class="st4" d="M452.2,460.7c-1.2-4.8-2.5-9.7-3.8-14.5c-0.8-2.7-1.5-5.4-2.3-8.1c-0.2-0.7-1-1.2-1.7-1c-0.7,0.2-1.2,1-1,1.7
			c1.4,4.8,2.8,9.6,4.1,14.5c1.3,4.8,2.5,9.7,3.7,14.5c0.7,2.7,1.3,5.5,1.9,8.2c0.2,0.7,1,1.2,1.7,1c0.7-0.2,1.1-0.9,1-1.7
			C454.6,470.4,453.4,465.5,452.2,460.7z"/>
		<path class="st4" d="M325.1,334.7C324.7,334.7,325,334.7,325.1,334.7L325.1,334.7z"/>
		<path class="st4" d="M319.8,333.3C319.8,333.3,319.8,333.3,319.8,333.3C319.5,333.1,319.7,333.2,319.8,333.3z"/>
		<path class="st4" d="M335.6,332.3c-0.5,0.4-1,0.7-1.6,1c-0.3,0.1-0.5,0.3-0.8,0.4c-0.1,0-0.1,0.1-0.2,0.1c0,0,0,0,0,0
			c-0.2,0.1-0.3,0.1-0.5,0.2c-0.6,0.2-1.2,0.4-1.8,0.5c-0.3,0.1-0.6,0.1-0.8,0.2c-0.2,0-0.3,0-0.5,0.1c0,0,0,0,0,0
			c-0.1,0-0.2,0-0.3,0c-1.2,0.1-2.5,0.1-3.7,0c-0.1,0-0.3,0-0.4,0c0,0,0,0,0,0c0,0,0,0,0,0c-0.1,0-0.2,0-0.2,0c-0.3,0-0.6-0.1-1-0.2
			c-0.6-0.1-1.3-0.3-1.9-0.5c-0.6-0.2-1.2-0.4-1.8-0.6c-0.1-0.1-0.3-0.1-0.4-0.2c0,0,0,0,0,0c-0.1,0-0.2-0.1-0.2-0.1
			c-0.3-0.1-0.6-0.3-0.9-0.4c-1.2-0.6-2.3-1.3-3.4-2.1c-0.3-0.2-0.5-0.4-0.8-0.6c-0.1-0.1-0.1-0.1-0.2-0.2c0,0,0,0,0,0c0,0,0,0,0,0
			c-0.1-0.1-0.3-0.2-0.4-0.3c-0.5-0.4-1.1-0.9-1.6-1.4c-1-0.9-2-1.9-2.9-2.9c-1.1-1.1-2.1-2.3-3-3.5c-0.5-0.6-1-1.2-1.4-1.8
			c-0.1-0.2-0.3-0.3-0.4-0.5c-0.1-0.1-0.1-0.1-0.2-0.2c0,0,0,0,0,0c0,0,0,0,0,0c-0.3-0.3-0.5-0.6-0.7-1c-0.2-0.3-0.4-0.5-0.8-0.6
			c-0.3-0.1-0.7,0-1,0.1c-0.5,0.3-0.9,1.2-0.5,1.8c3.5,4.6,7.2,9.2,11.8,12.7c4.3,3.3,9.7,5.3,15.2,5c3-0.2,6-1.1,8.5-2.9
			c0.3-0.2,0.5-0.4,0.6-0.8c0.1-0.3,0-0.7-0.1-1C337,332.3,336.2,331.9,335.6,332.3z"/>
		<path class="st4" d="M329.5,334.7C329.5,334.7,329.5,334.7,329.5,334.7C329.6,334.7,329.9,334.7,329.5,334.7z"/>
		<path class="st4" d="M333,333.8C333,333.8,333,333.8,333,333.8C333.1,333.8,333.3,333.6,333,333.8z"/>
		<path class="st4" d="M164.7,493.8c-0.1-0.7-0.3-1.4-0.4-2.1c-0.5-2.6-1.1-5.2-1.7-7.7c-0.8-3.2-1.7-6.5-2.7-9.7s-2.1-6.4-3.3-9.5
			c-0.1-0.4-0.3-0.8-0.5-1.2c-0.2-0.5-0.7-0.9-1.3-0.8c-0.5,0.2-1,0.8-0.8,1.3c1.2,3.1,2.3,6.3,3.3,9.4c1,3.2,2,6.4,2.8,9.7
			c0.8,3.2,1.6,6.5,2.2,9.7c0.7,3.3,1.2,6.6,1.7,9.9c0,0.2,0.1,0.4,0.1,0.6c0,0.1,0,0.3,0,0.1c0,0.1,0,0.3,0.1,0.4
			c0.1,0.4,0.1,0.8,0.2,1.2c0.1,0.8,0.2,1.7,0.3,2.5c0.2,1.7,0.3,3.3,0.5,5c0,0.4,0.1,0.8,0.1,1.3c0,0.4,0.2,0.7,0.6,0.9
			c0.2,0.1,0.3,0.2,0.5,0.2c0.6,0,1.1-0.5,1.1-1.1c-0.2-3.3-0.6-6.7-1-10C165.9,500.5,165.4,497.1,164.7,493.8z"/>
	</g>
</g>
<g>
	<path class="st5" d="M184.5,430.2l-3.9-2.9c0,1.7-0.2,3.5-0.8,5.1c-1.3,3.4-5.6,6-6.9,10c-1.1,3.5,0.7,8.2-0.4,12.2
		c-1,3.6-5.1,6.6-6.1,10.5c-0.9,3.6,1.3,8.2,0.5,12.2c-0.5,2.3-2.1,4.4-3.5,6.6c-1.4-11.4-3.4-21.6-6.5-27.2
		c-0.3-0.6-0.7-1.2-1.1-1.7c-2-2.7-3.1-5.2-3.5-7.6c-2-10.5,8.2-18,8.2-18s4.8-3.8,9.3-10c4-5.6,7.8-13.1,7.7-21.6
		c-0.1-4.1-1.1-8.5-3.4-13c-0.1-0.3-0.3-0.5-0.4-0.8c-3.2-5.7-6.8-11-10.7-15.6c-1.4-3.4-2.8-7.7-3.3-12.7c-0.7-6.9,0.2-15,4.8-23.4
		c0.7-1.3,1.5-2.5,2.4-3.8c5.8-11.5,11.4-19.4,14.4-25.2c2.4-4.6,3.2-7.9,1.3-10.6c-4.3-6.2-19.1-7.4-23.9,1.2
		c-1.4,2.5-1.9,5.8-2.1,9.4c-0.5,8.5,0.9,18.4-3.1,22.4c-1.6,1.6-2.7,4-3.8,6.7c-2.7,6.9-4.8,14.9-12.4,10.4
		c-2.8-1.7-5-5.6-6.7-10.4c-3.3-9.3-4.8-22-5.3-28.4c0-0.2,0-0.5-0.1-0.7c-0.1-1.9-0.1-3.8,0-5.7c0.2-3.7,0.5-10.7-2-15.3
		c-1.7-3.1-4.6-5-9.6-4.3c-4.3,0.9-6.9,2.2-8.2,4.3c-2.2,3.5-0.8,9,2.5,18.2c0.3,0.9,0.6,1.8,1,2.8c3,8.7,6.3,20,7.7,29.1
		c0.6,4.1,0.9,7.7,0.5,10.5c0.7,0.1,1.4,0.2,2.2,0.4c4,1.1,6.4,3.9,7.9,7.5c-0.2,0.1-0.3,0.2-0.5,0.3c-7.7,4.8-7.3,16.8,0.3,22.2
		c1.9,1.4,4.2,2.3,7,2.7c0.3,0,0.5,0,0.8-0.1c0.1,0,0.1,0,0.1,0c0.1,0,0.2,0,0.2,0c0.2,0,0.4-0.1,0.5-0.1c0.7-0.1,1.5-0.3,2.2-0.5
		c1.5-0.4,2.9-0.8,4.4-1.3c0.5-0.2,0.9,0.1,1.2,0.5c1.1,0.9,2.1,1.9,2.8,3.2c1.7,1.5,3.3,3.7,3.1,6.4c-0.2,2.3-4.9,2.6-9.9,3.5
		c-0.2,0.1-0.3,0.2-0.5,0.3c-0.1,0.1-0.2,0.1-0.3,0.2c0,0-0.1,0.1-0.1,0.1c0,0,0,0,0,0c0,0-0.1,0.1-0.1,0.1
		c-0.1,0.1-0.2,0.1-0.3,0.2c-0.6,0.5-1.2,1-1.8,1.6c-0.6,0.6-1.2,1.2-1.7,1.8c-0.3,0.3-0.5,0.6-0.8,0.9c-0.1,0.2-0.3,0.3-0.4,0.5
		c0,0,0,0,0,0c0,0,0,0-0.1,0.1c-0.1,0.1-0.1,0.2-0.2,0.2c-1,1.3-1.9,2.7-2.6,4.2c-0.1,0.2-0.2,0.5-0.3,0.7c-0.1,0.1-0.1,0.2-0.2,0.3
		c0.1-0.2,0,0.1-0.1,0.1c-0.2,0.4-0.3,0.9-0.5,1.3c-0.1,0.2-0.1,0.5-0.2,0.7c0,0.1,0,0.2-0.1,0.3c0,0,0,0.2,0,0.2
		c0,0.4-0.1,0.9-0.1,1.3c0,0.6-0.5,1.1-1.1,1.1c-0.6,0-1.1-0.5-1.1-1.1c-0.1-2.3,0.8-4.6,1.8-6.6c1.5-2.9,3.6-5.5,5.9-7.8
		c-2,0.6-3.8,1.4-5.3,2.5c-2,1.6-3.3,3.9-3.1,7.4c-1.4-0.9-2.4-2.2-2.7-3.9c-0.8-5.5,0.6-5.9-0.1-9.7c-1-5.1-3.5-8.3-4-8.6
		c-3.4-2-3.8-13.8-3.8-13.8s1-4.1-4.6-6.6c-0.5-0.2-0.9-0.5-1.2-0.8c-0.6-0.6-1.4-0.7-2.1-0.3c-1,0.5-2.2,0.7-3.2,0
		c-1.9-1.3-5.6,2.9-6.8,4.2l-0.3,0.5c1.1-0.2,2.4-0.2,3.7-0.1c9.7,0.5,12.6,6.1,13.1,11.9c0.5,4.9-0.7,9.9-0.5,11.8
		c0.1,2.6,2.5,5.1,4.1,7.4c1,1.4,1.8,2.8,1.6,4.2c-0.1,1-0.3,1.9-0.6,2.5c-0.5,1.1-1.6,1.7-4.1,2c-2-0.1-3.8-1.4-4.6-3.3
		c-0.1-0.2-0.2-0.3-0.1-0.4c0.7-9.3-4.2-14.6-6.7-16.1c-3-1.8-2-9.2-2-10.4c0-5-5.5-8-9.7-5.4c-1.5,1-3,2.3-4.4,4.1
		c-2,5.3-1.2,11.3-1.2,11.3l0,0c0.1,1.7,0.4,3.4,0.9,5.3c0.1,0.3,0.1,0.5,0.2,0.8c2.5,8.7,3.4,15.1,5,20.9c1,3.6,2.2,6.9,4.2,10.3
		l0,0c0,0,0.4,0.8,1.1,2.2c0.7,1.4,1.5,3.5,2.5,6.3c2.1,0.8,10.4,5.8,9.6,10.1c-0.7,3.4,6.4,9.6,5.8,14c-0.1,0.7-0.3,1.5-0.4,2.2
		c-0.6,2.8-1.6,5.5-1.9,8.8c-0.4,3.7,2.4,7.8,2.2,12c-0.2,3.7-3.6,7.5-3.7,11.6c-0.1,3.8,3,7.7,3,11.8c0,3.8-3.1,7.8-2.9,11.8
		c0.1,3.8,3.5,7.5,3.7,11.6c0.2,2.8-1.4,5.9-2,8.9h52.8h17.6c0.1-2.7,0.1-5.4,0.2-8.1c1.3-30.3,6.3-57,13.1-79.9l0,0L184.5,430.2z
		 M123.9,298.2c-0.7,1.9-2.2,3.1-4,3.8c-2,0.8-4.1,0.7-6.2,0.7c-0.6,0-1.1-0.5-1.1-1.1c0-0.6,0.5-1.1,1.1-1.1c1,0,2,0,3,0
		c0.2,0,0.4,0,0.6-0.1c0,0,0.2,0,0.3,0c0.1,0,0.2,0,0.3-0.1c0.4-0.1,0.9-0.2,1.3-0.4c0.1,0,0.2-0.1,0.3-0.1c0,0,0,0,0.1,0
		c0.2-0.1,0.4-0.2,0.6-0.3c0.2-0.1,0.3-0.2,0.5-0.3c0,0,0.1-0.1,0.1-0.1c0,0,0.1-0.1,0.2-0.1c0.2-0.1,0.3-0.3,0.4-0.4
		c0.1-0.1,0.1-0.1,0.2-0.2c0,0,0-0.1,0.1-0.1c0.1-0.1,0.2-0.3,0.3-0.4c0-0.1,0.1-0.2,0.1-0.3c0,0,0,0,0-0.1c0,0,0,0,0,0c0,0,0,0,0,0
		c0,0,0,0,0,0c0,0,0,0,0,0c0.2-0.5,0.7-0.9,1.3-0.7C123.7,297,124.1,297.7,123.9,298.2z M98.2,381.2c-1.9,1.1-3.9,2.2-5.8,3.4
		c-0.5,0.3-1.2,0.1-1.5-0.4c-0.3-0.5-0.1-1.2,0.4-1.5c1.9-1.1,3.9-2.2,5.8-3.4c0.5-0.3,1.2-0.1,1.5,0.4
		C98.9,380.2,98.7,380.9,98.2,381.2z M98.9,379.3c-1.1-0.4-2-1.1-2.9-1.9c-1.4-1.4-2.4-3.1-3.5-4.7c-0.3-0.5-0.1-1.2,0.4-1.5
		c0.5-0.3,1.2-0.1,1.5,0.4c0.5,0.7,0.9,1.3,1.4,2c0.2,0.3,0.4,0.5,0.6,0.8c0,0.1,0.1,0.1,0.1,0.2c0,0,0,0,0,0.1
		c0.1,0.1,0.2,0.2,0.3,0.4c0.4,0.5,0.9,1,1.4,1.4c0,0,0.1,0.1,0.1,0.1c0.1,0,0,0-0.1,0c0,0,0.2,0.1,0.2,0.1c0.1,0.1,0.3,0.2,0.4,0.3
		c0.1,0.1,0.3,0.2,0.4,0.2c0.1,0,0.1,0.1,0.2,0.1c0,0,0.1,0,0.1,0c0.6,0.2,0.9,0.7,0.8,1.3c-0.1,0.4-0.4,0.7-0.8,0.8
		C99.2,379.4,99,379.4,98.9,379.3z M158.7,307.6c0.3-0.6,1-0.6,1.5-0.4c0,0,0.4,0.2,0.2,0.1c0.1,0,0.2,0.1,0.2,0.1
		c0.2,0.1,0.4,0.1,0.6,0.2c0.4,0.1,0.8,0.2,1.2,0.3c0.2,0,0.4,0.1,0.6,0.1c0.1,0,0.2,0,0.2,0c0.1,0,0.1,0,0.1,0
		c0.4,0,0.8,0.1,1.2,0.1c0.4,0,0.8,0,1.2-0.1c0.1,0,0.2,0,0.3,0c0,0,0.1,0,0.1,0c0.2,0,0.4-0.1,0.6-0.1c0.4-0.1,0.8-0.2,1.2-0.3
		c0.2-0.1,0.4-0.1,0.6-0.2c0.1,0,0.2-0.1,0.3-0.1c0,0,0.4-0.2,0.2-0.1c0.6-0.2,1.1-0.2,1.5,0.4c0.3,0.5,0.1,1.3-0.4,1.5
		c-1.7,0.8-3.6,1.2-5.5,1.1c-1.9,0-3.8-0.4-5.5-1.2C158.6,308.8,158.5,308.1,158.7,307.6z M132.9,343c0.4-0.4,1.1-0.4,1.5,0
		c0.2,0.2,0.4,0.4,0.6,0.6c0.1,0,0.1,0.1,0.2,0.1c0,0,0,0,0,0c0.1,0.1,0.2,0.1,0.3,0.2c0.5,0.3,0.9,0.6,1.4,0.9
		c0.1,0.1,0.3,0.1,0.4,0.2c0,0,0.1,0,0.1,0.1c0,0,0,0,0,0c0.2,0.1,0.5,0.2,0.7,0.3c0.5,0.2,0.9,0.3,1.4,0.4c0.1,0,0.3,0.1,0.4,0.1
		c0,0,0.1,0,0.1,0c0,0,0.1,0,0.1,0c0,0-0.1,0-0.1,0c0,0.1,0.6,0.1,0.7,0.1c0.5,0,1,0,1.5,0c0.3,0,0.5,0,0.8-0.1c0,0,0,0,0,0
		c0,0,0.1,0,0.1,0c0.1,0,0.2,0,0.3-0.1c0.5-0.1,1-0.2,1.5-0.4c0.2-0.1,0.5-0.2,0.7-0.3c0,0,0.1,0,0.1-0.1c0.1-0.1,0.2-0.1,0.3-0.2
		c0.5-0.2,0.9-0.5,1.3-0.8c0.5-0.3,1.2-0.1,1.5,0.4c0.3,0.5,0.1,1.2-0.4,1.5c-1,0.7-2.2,1.2-3.4,1.6c-4.3,1.2-9.2,0.1-12.4-3
		C132.5,344.1,132.5,343.4,132.9,343z M135.8,349.6c6.8-2,15.9-2.6,18,0.1c1.4,1.8,1.7,6.3,2.2,11.3
		C149.1,354.7,141.9,350.6,135.8,349.6z M166.3,515c-0.2,0-0.4-0.1-0.5-0.2c-0.3-0.2-0.5-0.5-0.6-0.9c0-0.4-0.1-0.8-0.1-1.3
		c-0.1-1.7-0.3-3.3-0.5-5c-0.1-0.8-0.2-1.7-0.3-2.5c-0.1-0.4-0.1-0.8-0.2-1.2c0-0.1,0-0.3-0.1-0.4c0,0.2,0,0,0-0.1
		c0-0.2-0.1-0.4-0.1-0.6c-0.5-3.3-1-6.6-1.7-9.9c-0.6-3.3-1.4-6.5-2.2-9.7c-0.8-3.2-1.8-6.5-2.8-9.7c-1-3.2-2.1-6.3-3.3-9.4
		c-0.2-0.6,0.2-1.2,0.8-1.3c0.6-0.2,1.1,0.2,1.3,0.8c0.2,0.4,0.3,0.8,0.5,1.2c1.2,3.1,2.3,6.3,3.3,9.5s1.9,6.4,2.7,9.7
		c0.6,2.6,1.2,5.1,1.7,7.7c0.1,0.7,0.3,1.4,0.4,2.1c0.6,3.4,1.2,6.8,1.6,10.2c0.4,3.3,0.8,6.7,1,10C167.4,514.5,166.9,515,166.3,515
		z"/>
	<path class="st5" d="M494.8,511.5c-0.5-4-4.2-7.4-4.7-11.2c-0.6-4,1.9-8.4,1.2-12.1c-0.7-4-4.6-7.2-5.4-10.9
		c-0.8-4,1.4-8.5,0.5-12.2c-1-4-5.1-7-6.1-10.5c-1.1-4,0.7-8.7-0.4-12.2c-1.3-4-5.6-6.7-6.9-10c-0.6-1.6-0.8-3.4-0.8-5.1l-3.9,2.9
		l-10.4,7.7c7.3,23.3,12.8,50.5,14.2,81.4c0.1,2.7,0.2,5.3,0.3,8.1h21.8c-0.6-1.2-1.1-2.4-1.2-3.8
		C492.5,519.6,495.3,515.3,494.8,511.5z"/>
	<path class="st5" d="M166.1,151.6c0-6.8,7.3-9.2,14.4-8.4c54.4,6,77.3,36.1,78.4,48.4c0.9,9.9-2.8,9.5-4.3,9
		c-0.6,0.4-1.2,0.7-1.9,0.9c-6,1.9-15.7,3.2-26.4,3.8c-5.3,0.3-10.8,0.5-16.2,0.5c-20.8,0-40.5-2.1-41.7-6.4
		c-0.1-0.2-0.2-0.3-0.4-0.4c-0.3-0.1-0.6-0.1-0.8-0.1c-5.1-0.3-4.1,2.9-3.4,5.8c0.1,0.4,0.2,0.8,0.3,1.1c1.6,5.7,5.3,10.5,11.3,10.9
		c35.9,2.4,61.4-0.9,75.4-5.1c0.5-0.1,0.9-0.3,1.4-0.4c0.2-0.1,0.3-0.1,0.5-0.2c0.2-0.1,0.4-0.1,0.6-0.2c0.1,0,0.2-0.1,0.3-0.1
		c1.1-0.4,2.1-0.8,3-1.2c0.1-0.1,0.3-0.1,0.4-0.2c0.4-0.2,0.8-0.3,1.1-0.5c2.7-1.3,5.6-2.4,8.5-3.1c0.5-0.1,1.1-0.2,1.6-0.3
		c0.5-0.1,1.1-0.2,1.6-0.3c2.2-0.3,4.8-0.5,7.6-0.5c0.6,0,1.1,0,1.7,0c1.2,0,2.4,0.1,3.6,0.2c1.7,0.1,3.4,0.4,5.2,0.7
		c0.3,0.1,0.6,0.1,0.8,0.1c1-0.1,1.9-0.6,2.5-1.3c0.1-0.1,0.2-0.2,0.2-0.3c0-0.1,0.1-0.1,0.1-0.2c0.3-0.5,0.4-1.1,0.4-1.7
		c0-0.1,0-0.2,0-0.4c0-0.1,0-0.3-0.1-0.4c-0.1-0.4-0.3-0.8-0.6-1.2c-1.5-2.1-3.1-4.4-4.9-6.9c-0.6-0.8-1.2-1.6-1.8-2.5
		c-0.5-0.7-1-1.4-1.5-2.1c-2.6-3.5-5.5-7.3-8.6-11.1c-1.3-1.5-2.6-3.1-3.9-4.6c-0.4-0.5-0.9-1-1.4-1.5c-0.9-1-1.8-2.1-2.8-3.1
		c-1.2-1.3-2.4-2.6-3.6-3.8c0,0,0,0,0,0c-19.6-20-47-38.7-84.5-38.7c0,0,0,0,0,0c-11.1,0-17.9,6.2-20.6,12.6
		C154.4,146.1,157.3,154.2,166.1,151.6z M206.8,138.9c0.2-0.7,0.9-1.1,1.6-0.9c0.6,0.2,1.1,0.4,1.7,0.5c4.8,1.5,9.4,3.4,14,5.6
		c4.4,2.1,8.7,4.5,12.8,7.2c4.2,2.7,8.2,5.7,12,9c3.7,3.2,7.3,6.6,10.5,10.2c3.4,3.7,6.5,7.7,9.3,11.8c0.4,0.6,0.1,1.4-0.5,1.8
		c-0.6,0.4-1.4,0.1-1.8-0.5c-0.3-0.5-0.7-1-1-1.5c-0.7-1-1.4-2-2.2-3c-0.1-0.1-0.2-0.3-0.3-0.4c0,0,0,0,0,0c0,0-0.1-0.1-0.1-0.1
		c-0.2-0.2-0.3-0.4-0.5-0.7c-0.4-0.5-0.8-1-1.2-1.5c-1.5-1.9-3.1-3.7-4.8-5.5c-3.3-3.6-6.9-6.9-10.7-10c-0.5-0.4-0.9-0.8-1.4-1.1
		c-0.2-0.2-0.5-0.4-0.7-0.6c-0.1-0.1-0.2-0.2-0.4-0.3c0,0-0.1-0.1-0.1-0.1c0,0,0,0,0,0c-1-0.7-2-1.5-2.9-2.2c-2-1.4-4-2.8-6.1-4.1
		c-4.1-2.6-8.4-4.9-12.9-7c-0.6-0.3-1.1-0.5-1.7-0.8c-0.3-0.1-0.6-0.3-0.9-0.4c-0.1-0.1-0.3-0.1-0.4-0.2c-0.1,0-0.1,0-0.2-0.1
		c-1.1-0.5-2.3-0.9-3.4-1.4c-2.3-0.9-4.6-1.7-7-2.4C207,140.3,206.6,139.6,206.8,138.9z"/>
	<path class="st5" d="M498.5,138.3c-2.7-6.4-9.6-12.6-20.6-12.6c0,0,0,0,0,0h0c-35.1,0-61.4,16.4-80.7,34.9c-0.5,0.5-1,1-1.5,1.5
		c-0.3,0.3-0.5,0.5-0.8,0.8c0,0,0,0,0,0c-0.5,0.5-1,1-1.5,1.5c-1,1-1.9,2-2.8,3c-6.6,7.1-12.3,14.2-17.1,20.7
		c-0.7,0.9-1.4,1.8-2,2.7c-1.2,1.7-2.4,3.3-3.5,4.9s-2.2,3-3.2,4.4c-0.1,0.2-0.3,0.4-0.4,0.6c-0.1,0.3-0.2,0.6-0.3,0.9
		c0,0.2,0,0.3,0,0.5c0,0,0,0,0,0c0,0.1,0,0.3,0,0.4c0,0,0,0.1,0,0.1c0,0.2,0.1,0.4,0.1,0.6c0.1,0.4,0.3,0.7,0.6,1
		c0.6,0.8,1.5,1.3,2.6,1.3c0.3,0,0.5,0,0.8-0.1c1.8-0.3,3.6-0.5,5.3-0.7c1.8-0.1,3.6-0.2,5.2-0.2c0,0,0,0,0,0c2.8,0,5.3,0.2,7.5,0.5
		c0.7,0.1,1.4,0.2,2.1,0.3c3.3,0.7,6.5,1.8,9.6,3.3c0.4,0.2,0.7,0.3,1.1,0.5c1.1,0.5,2.3,0.9,3.6,1.4c0.3,0.1,0.5,0.2,0.8,0.3
		c0.2,0.1,0.4,0.1,0.5,0.2c0.4,0.1,0.9,0.3,1.3,0.4c14,4.2,39.5,7.5,75.4,5.1c6-0.4,9.7-5.2,11.3-10.9c0.1-0.4,0.2-0.8,0.3-1.1
		c0.7-2.9,1.7-6.1-3.4-5.8c-0.3,0-0.6,0-0.8,0.1c-0.2,0.1-0.3,0.2-0.4,0.4c-1.2,4.1-19.4,6.2-39.2,6.4c-5.3,0-10.8-0.1-16-0.3
		c-11.8-0.6-22.6-1.9-29.2-3.9c-0.7-0.2-1.3-0.5-1.9-0.9c-1.5,0.6-5.2,0.9-4.3-9c1.1-12.2,24-42.4,78.4-48.4
		c7.2-0.8,14.4,1.7,14.4,8.4C499,154.2,501.8,146.1,498.5,138.3z"/>
	<path class="st5" d="M252.4,138.3c1.4,2.1,3.1,4.3,5,6.7c1.2,1.5,2.6,3.1,3.9,4.7c1.4,1.6,2.8,3.2,4.3,4.9c0.7,0.8,1.5,1.6,2.2,2.4
		c0,0,0.1,0.1,0.1,0.1c1.1,1.2,2.3,2.5,3.4,3.7c0,0,0,0,0.1,0.1c0.6,0.6,1.2,1.2,1.7,1.8c0.2,0.2,0.4,0.4,0.6,0.6
		c0.3,0.3,0.6,0.6,0.9,0.9c0.2,0.2,0.4,0.4,0.6,0.6c0.2,0.2,0.4,0.4,0.6,0.6c0.2,0.2,0.4,0.4,0.6,0.6c0.3,0.3,0.6,0.6,0.9,0.9
		c1.2,1.2,2.3,2.3,3.4,3.5c0.2,0.2,0.4,0.4,0.6,0.6c3.9,3.9,7.4,7.4,10.2,10c0.2,0.2,0.4,0.3,0.6,0.4c1.2,0.6,2.5,0.1,3.2-0.9
		c0.1-0.1,0.1-0.2,0.1-0.3c0,0,0-0.1,0.1-0.1c0.2-0.5,0.3-1,0.1-1.6c-0.5-1.8-1-3.8-1.7-5.9c-0.4-1.3-0.9-2.7-1.3-4.1
		c-0.1-0.2-0.1-0.4-0.2-0.6c-0.1-0.3-0.2-0.5-0.3-0.8c-3.9-11.1-10.2-24.6-19.6-33.6c-1.4-1.3-2.8-2.5-4.4-3.6
		c-3.8-2.8-8.1-4.8-12.8-5.7c-4.9-0.9-7.3-0.1-7.8,1.9c0,0.1-0.1,0.3-0.1,0.4c0,0.1,0,0.2,0,0.2c0,0.3,0,0.7,0,1
		C247.6,130.4,249.5,134,252.4,138.3z"/>
	<path class="st5" d="M488.6,253.3c1.7-4.5,2.8-8.8,3.5-12.6c1.4-7.6,1.2-13.2,1.3-14.6c0.4-4.1-2.6-4.8-3.9-5c0,0,0,0,0,0
		c-0.3,0-0.6,0-0.9,0.1l0,0c-1.9,0.7-13.3,4.5-39.9,12c-25.8,7.3-38.9,10.3-70.8,4.8c-7.3-1.3-14.5-3.2-21.5-5.5
		c-6.1-2-15.2-4-22-1.3c-0.3,0.1-0.5,0.2-0.8,0.3c-0.2,0.1-0.4,0.1-0.7,0.2c0,0-0.1,0-0.1,0c-0.8,0.2-1.6,0.4-2.4,0.6
		c-0.7,0.1-1.4,0.2-2.1,0.2c-0.1,0-0.2,0-0.3,0c-0.1,0-0.2,0-0.3,0c-1.5,0-3-0.3-4.5-0.7c0,0-0.1,0-0.1,0c-0.2-0.1-0.4-0.1-0.7-0.2
		c-0.3-0.1-0.5-0.2-0.8-0.3c-6.8-2.7-15.9-0.7-22,1.3c-7.1,2.3-14.2,4.2-21.5,5.5c-31.9,5.6-45,2.5-70.8-4.8
		c-26.6-7.5-38-11.3-39.9-12c-0.3,0-0.6,0-0.9-0.1c0,0,0,0,0,0c-0.3,0-0.7,0.1-1.2,0.3c0,0,0,0,0,0c-0.2,0.1-0.3,0.1-0.5,0.2
		c0,0-0.1,0-0.1,0c-0.1,0.1-0.3,0.1-0.4,0.2c0,0,0,0-0.1,0c-0.2,0.1-0.3,0.2-0.4,0.3c0,0-0.1,0.1-0.1,0.1c-0.1,0.1-0.3,0.3-0.4,0.4
		c0,0,0,0,0,0c-0.1,0.2-0.2,0.3-0.3,0.5c0,0,0,0.1-0.1,0.1c-0.1,0.2-0.2,0.4-0.2,0.6c0,0,0,0,0,0c-0.1,0.2-0.1,0.5-0.1,0.8
		c0,0.1,0,0.1,0,0.2c0,0.3,0,0.6,0,1c0.1,1.4,0,7,1.3,14.6c0.7,3.8,1.8,8.1,3.5,12.6c3.9,9.9,10.9,20.7,23.8,29.1
		c11.6,7.6,28,13.1,51.1,14.3c3,0.2,6.1,0.2,9.3,0.2l10.2,0.1c0.5,0.3,1,0.6,1.3,1c0.9,1.5-0.8,4.4,0.1,6c0.8,1.5,4.2,1.9,4.9,3.5
		c0.7,1.6-1.2,4.3-0.6,6c0.6,1.7,3.9,2.4,4.4,4.1c0.5,1.7-1.8,4.1-1.5,5.8c0.3,1.8,3.4,3.2,3.4,4.9c0.1,1.8-2.8,3.4-3.1,5.1
		c-0.6,4.3-2,10.7-7.6,17.3c0,0,0,0,0,0c24.5,16,60.9,14.9,62.3,14.9v0c0,0,0,0,0,0c0,0,0,0,0,0v0c1.5,0,38.9,1.1,63.7-14.9
		c0,0,0,0,0,0c-5.7-6.5-7-12.9-7.6-17.3c-0.3-1.7-3.2-3.3-3.1-5.1c0.1-1.7,3.1-3.2,3.4-4.9c0.3-1.7-2-4.1-1.5-5.8
		c0.5-1.7,3.8-2.4,4.4-4.1c0.6-1.6-1.3-4.4-0.6-6c0.7-1.6,4.1-1.9,4.9-3.5c0.8-1.6-0.8-4.5,0.1-6c0.3-0.4,0.7-0.8,1.2-1l13.7-0.1
		c2,0,3.9,0,5.8-0.1c24.9-0.8,42.4-6.5,54.6-14.5C477.7,274,484.7,263.2,488.6,253.3z M337.5,333.8c-0.1,0.3-0.3,0.6-0.6,0.8
		c-2.5,1.8-5.5,2.7-8.5,2.9c-5.5,0.3-10.9-1.8-15.2-5c-4.7-3.5-8.3-8.1-11.8-12.7c-0.4-0.6-0.1-1.4,0.5-1.8c0.3-0.2,0.7-0.2,1-0.1
		c0.4,0.1,0.6,0.3,0.8,0.6c0.2,0.3,0.5,0.7,0.8,1c0,0,0,0,0,0c0,0,0,0,0,0c0.1,0.1,0.1,0.1,0.2,0.2c0.1,0.2,0.3,0.3,0.4,0.5
		c0.5,0.6,0.9,1.2,1.4,1.8c1,1.2,2,2.4,3,3.5c0.9,1,1.9,2,2.9,2.9c0.5,0.5,1,0.9,1.6,1.4c0.1,0.1,0.3,0.2,0.4,0.3c0,0,0,0,0,0
		c0,0,0,0,0,0c0.1,0.1,0.1,0.1,0.2,0.2c0.3,0.2,0.5,0.4,0.8,0.6c1.1,0.8,2.2,1.5,3.4,2.1c0.3,0.1,0.6,0.3,0.9,0.4
		c0.1,0,0.2,0.1,0.2,0.1c0,0,0,0,0,0c0,0,0,0,0,0c-0.1,0-0.3-0.2,0,0c0.1,0.1,0.3,0.1,0.4,0.2c0.6,0.2,1.2,0.4,1.8,0.6
		c0.6,0.2,1.3,0.3,1.9,0.5c0.3,0.1,0.6,0.1,1,0.2c0.1,0,0.2,0,0.2,0c0,0,0,0,0,0c-0.1,0-0.3-0.1,0,0c0,0,0,0,0,0c0.1,0,0.3,0,0.4,0
		c1.2,0.1,2.5,0.1,3.7,0c0.1,0,0.2,0,0.3,0c0.4-0.1,0.1,0,0,0c0,0,0,0,0,0c0,0,0,0,0,0c0.2,0,0.3,0,0.5-0.1c0.3,0,0.6-0.1,0.8-0.2
		c0.6-0.1,1.2-0.3,1.8-0.5c0.2-0.1,0.3-0.1,0.5-0.2c0.3-0.2,0.1,0,0,0c0,0,0,0,0,0c0,0,0,0,0,0c0.1,0,0.1-0.1,0.2-0.1
		c0.3-0.1,0.5-0.2,0.8-0.4c0.6-0.3,1.1-0.6,1.6-1c0.6-0.4,1.4-0.1,1.8,0.5C337.6,333.1,337.6,333.5,337.5,333.8z M351.5,305.4
		c-3.3,3.5-5.6,6.5-6.7,8.5c-3.8,7.2-9.4,13.2-16.4,14.6c-0.2,0.1-0.4,0.1-0.7,0c-7-1.3-12.6-7.4-16.4-14.6c-1.1-2-3.4-5-6.7-8.5
		c-2.4-2.5-5.2-5.3-8.5-8.2l27.9,0.1l0,0l3,0l0.6,0v0l0.3,0l0.3,0v0l0.6,0l3,0l0,0l27.9-0.1C356.7,300.1,353.9,302.9,351.5,305.4z"
		/>
	<path class="st5" d="M367.7,158.5c-1,2.4-2,4.8-2.8,7.1c-1.8,4.9-3.1,9.4-4.1,12.9c0,0.1,0,0.2-0.1,0.2c-0.1,0.7,0,1.3,0.3,1.8
		c0,0,0,0,0,0c0.1,0.2,0.2,0.3,0.4,0.4c0.3,0.3,0.7,0.5,1.1,0.6c0.7,0.2,1.4,0.1,2.1-0.4c0.1-0.1,0.1-0.1,0.2-0.2
		c2.1-2,4.7-4.5,7.5-7.3c0.5-0.5,1.1-1.1,1.6-1.6c0,0,0,0,0,0c1.5-1.5,3-3,4.6-4.6c0.6-0.6,1.1-1.2,1.7-1.8c4.1-4.2,8.2-8.6,12.1-13
		c1.1-1.3,2.2-2.5,3.2-3.7c3.1-3.7,6-7.3,8.2-10.5c1.6-2.3,2.9-4.4,3.7-6.2c0.7-1.4,1.1-2.7,1.3-3.7c0.1-0.4,0.1-0.7,0.1-1
		c0.1-2.9-2.2-4.2-8-3.1c-2.8,0.5-5.5,1.5-8,2.8c-1,0.5-1.9,1-2.8,1.6c-0.9,0.6-1.8,1.2-2.7,1.9
		C378.6,137.2,372.2,148.1,367.7,158.5z"/>
	<path class="st5" d="M273.1,115c13.5,7.8,24.8,17.6,31.6,24.9c3.3,3.5,5.6,6.5,6.7,8.5c0.1,0.2,0.2,0.4,0.4,0.7
		c0.1,0.1,0.1,0.2,0.2,0.3c0.1,0.1,0.1,0.2,0.2,0.4c0.1,0.2,0.2,0.3,0.3,0.5c0,0,0.1,0.1,0.1,0.1c0.1,0.2,0.3,0.4,0.4,0.6
		c0,0,0,0,0,0c3.7,6,8.8,10.8,14.9,11.9c0,0,0.1,0,0.1,0c0,0,0,0,0.1,0c0,0,0.1,0,0.1,0c0,0,0,0,0,0c0,0,0.1,0,0.1,0c0,0,0,0,0.1,0
		c0,0,0.1,0,0.1,0c0.7-0.1,1.4-0.3,2.1-0.6c5-1.7,9.1-5.8,12.4-10.7c0,0,0,0,0,0c0.1-0.2,0.3-0.4,0.4-0.6c0-0.1,0.1-0.1,0.1-0.2
		c0.1-0.2,0.2-0.3,0.3-0.5c0.1-0.1,0.1-0.2,0.2-0.4c0.1-0.1,0.1-0.2,0.2-0.3c0.3-0.4,0.5-0.9,0.7-1.3c1.1-2,3.4-5,6.7-8.5
		c0,0,0,0,0,0c7.2-7.7,19.1-17.9,33.3-25.9l0,0h0c0,0,0,0,0,0c-0.7-0.4-11.4-6.5-29-10.3c-7.3-1.6-15.8-2.8-25.2-3
		c-0.7,0-1.4,0-2.1,0v0c-0.1,0-0.2,0-0.3,0c-0.1,0-0.2,0-0.3,0v0c-8.2,0.1-15.7,0.9-22.4,2.1c-21.1,3.7-34,11.2-34,11.2l0,0l0,0
		c0,0,0,0,0,0C272,114.3,272.6,114.7,273.1,115z"/>
</g>
<path class="st3" d="M448.8,233.2c26.6-7.5,38-11.3,39.9-12c-1.8,0.2-3.6,0.3-5.4,0.4c-3.6,0.3-7,0.5-10.3,0.6c-0.7,0-1.3,0.1-2,0.1
	c-33.9,1.4-51.2-2.8-60-7.2c0,0,0,0,0,0c-0.5-0.2-0.9-0.5-1.3-0.7c-0.7-0.4-1.3-0.8-1.9-1.1c-0.4-0.3-0.8-0.6-1.2-0.8
	c-0.1-0.1-0.2-0.2-0.3-0.3c-0.3-0.2-0.5-0.4-0.8-0.7c-0.4-0.1-0.9-0.3-1.3-0.4c-0.2-0.1-0.4-0.1-0.5-0.2c-0.3-0.1-0.6-0.2-0.8-0.3
	c-1.3-0.5-2.6-0.9-3.6-1.4c-0.4-0.2-0.8-0.3-1.1-0.5c-3.1-1.5-6.3-2.6-9.6-3.3c-0.7-0.1-1.4-0.3-2.1-0.3c-2.2-0.3-4.7-0.5-7.5-0.5
	c0,0,0,0,0,0c-1.7,0-3.4,0-5.2,0.2c-1.7,0.1-3.5,0.4-5.3,0.7c-0.3,0.1-0.6,0.1-0.8,0.1c-1.1,0-2-0.6-2.6-1.3c-0.2-0.3-0.4-0.6-0.6-1
	c-0.1-0.2-0.1-0.4-0.1-0.6c0,0,0-0.1,0-0.1c0-0.1,0-0.3,0-0.4c0,0,0,0,0,0c0-0.2,0-0.3,0-0.5c0-0.3,0.1-0.6,0.3-0.9
	c0.1-0.2,0.2-0.4,0.4-0.6c1-1.4,2-2.9,3.2-4.4c1.1-1.6,2.3-3.2,3.5-4.9c0.7-0.9,1.3-1.8,2-2.7c4.8-6.5,10.5-13.6,17.1-20.7
	c0.9-1,1.9-2,2.8-3c0.5-0.5,1-1,1.5-1.5c0,0,0,0,0,0c0.3-0.3,0.5-0.5,0.8-0.8c0.5-0.5,1-1,1.5-1.5c19.3-18.5,45.6-34.9,80.7-34.9
	c-1-1.2-2.1-2.4-3.1-3.5c-1.7-1.8-3.3-3.4-5-4.9c-34.2-30.6-72.5-11.1-84.4-3.6c-0.2,0.1-0.3,0.2-0.5,0.3c0,0,0,0,0,0h0l0,0
	c-14.3,8-26.2,18.2-33.3,25.9c0,0,0,0,0,0c-3.3,3.5-5.6,6.5-6.7,8.5c-0.2,0.5-0.5,0.9-0.7,1.3c-0.1,0.1-0.1,0.2-0.2,0.3
	c-0.1,0.1-0.1,0.2-0.2,0.4c-0.1,0.2-0.2,0.3-0.3,0.5c0,0.1-0.1,0.1-0.1,0.2c-0.1,0.2-0.3,0.4-0.4,0.6c0,0,0,0,0,0
	c-3.2,5-7.4,9.1-12.4,10.7c-0.7,0.2-1.5,0.4-2.2,0.6c0,0,0,0-0.1,0c0,0,0,0-0.1,0h-0.1c0,0,0,0,0,0h-0.1c0,0,0,0-0.1,0
	c0,0,0,0-0.1,0c-6.2-1.1-11.2-5.9-15-12c0,0,0,0,0,0c-0.1-0.2-0.3-0.4-0.4-0.6c0,0-0.1-0.1-0.1-0.1c-0.1-0.2-0.2-0.3-0.3-0.5
	c-0.1-0.1-0.1-0.2-0.2-0.4c-0.1-0.1-0.1-0.2-0.2-0.3c-0.1-0.2-0.2-0.4-0.4-0.7c-1.1-2-3.4-5-6.7-8.5c-6.9-7.4-18.1-17.1-31.6-24.9
	c-0.6-0.3-1.1-0.6-1.7-1c0,0,0,0,0,0l0,0l0,0c0,0,0,0,0,0c-0.1-0.1-0.3-0.2-0.4-0.3c-11.9-7.5-50.2-27-84.4,3.6
	c-1.7,1.5-3.4,3.1-5,4.9c-1.1,1.1-2.1,2.3-3.1,3.5c0,0,0,0,0,0c37.5,0,65,18.7,84.5,38.7c0,0,0,0,0,0c1.2,1.3,2.5,2.6,3.6,3.8
	c1,1,1.9,2.1,2.8,3.1c0.5,0.5,0.9,1,1.4,1.5c1.3,1.6,2.6,3.1,3.9,4.6c3.1,3.8,6,7.6,8.6,11.1c0.5,0.7,1,1.4,1.5,2.1
	c0.6,0.8,1.2,1.7,1.8,2.5c1.8,2.5,3.4,4.8,4.9,6.9c0.3,0.4,0.5,0.8,0.6,1.2c0,0.1,0.1,0.3,0.1,0.4c0,0.1,0,0.2,0,0.4
	c0,0.6-0.2,1.2-0.4,1.7c0,0.1-0.1,0.1-0.1,0.2c-0.1,0.1-0.1,0.2-0.2,0.3c-0.6,0.7-1.5,1.2-2.5,1.3c-0.3,0-0.5,0-0.8-0.1
	c-1.8-0.3-3.5-0.5-5.2-0.7c-1.2-0.1-2.4-0.2-3.6-0.2c-0.6,0-1.2,0-1.7,0c-2.8,0-5.4,0.2-7.6,0.5c-0.5,0.1-1.1,0.2-1.6,0.3
	c-0.5,0.1-1.1,0.2-1.6,0.3c-2.9,0.7-5.8,1.7-8.5,3.1c-0.4,0.2-0.7,0.3-1.1,0.5c-0.1,0.1-0.3,0.1-0.4,0.2c-0.9,0.4-1.9,0.8-3,1.2
	c-0.1,0-0.2,0.1-0.3,0.1c-0.2,0.1-0.4,0.1-0.6,0.2c-0.2,0.1-0.3,0.1-0.5,0.2c-0.4,0.1-0.9,0.3-1.4,0.4c-0.6,0.5-1.2,1-2,1.5
	c-0.5,0.3-1,0.7-1.6,1c-0.9,0.5-1.9,1.1-3,1.6c-0.4,0.2-0.8,0.3-1.2,0.5c-0.6,0.3-1.3,0.5-1.9,0.8c-9.7,3.6-26.6,6.5-55.8,5.4
	c-0.7,0-1.4-0.1-2.1-0.1c-0.8,0-1.6-0.1-2.5-0.1c-2.5-0.1-5.1-0.3-7.7-0.5c-1.8-0.1-3.6-0.3-5.4-0.4c1.9,0.7,13.3,4.5,39.9,12
	c25.8,7.3,38.9,10.3,70.8,4.8c7.3-1.3,14.5-3.2,21.5-5.5c6.1-2,15.2-4,22-1.3c0.3,0.1,0.5,0.2,0.8,0.3c0.2,0.1,0.4,0.1,0.7,0.2
	c0,0,0.1,0,0.1,0c1.5,0.5,3,0.7,4.5,0.7v0c0.1,0,0.2,0,0.3,0c0.1,0,0.2,0,0.3,0v0c0.7,0,1.4-0.1,2.1-0.2c0.8-0.1,1.6-0.3,2.4-0.5
	c0,0,0.1,0,0.1,0c0.2-0.1,0.4-0.1,0.7-0.2c0.3-0.1,0.5-0.2,0.8-0.3c6.8-2.7,15.9-0.7,22,1.3c7.1,2.3,14.2,4.2,21.5,5.5
	C409.9,243.6,423,240.5,448.8,233.2z M295.4,180.1c0,0,0,0.1-0.1,0.1c0,0.1-0.1,0.2-0.1,0.3c-0.7,1-2,1.5-3.2,0.9
	c-0.2-0.1-0.4-0.3-0.6-0.4c-2.8-2.7-6.3-6.1-10.2-10c-0.2-0.2-0.4-0.4-0.6-0.6c-1.1-1.1-2.3-2.3-3.4-3.5c-0.3-0.3-0.6-0.6-0.9-0.9
	c-0.2-0.2-0.4-0.4-0.6-0.6c-0.2-0.2-0.4-0.4-0.6-0.6c-0.2-0.2-0.4-0.4-0.6-0.6c-0.3-0.3-0.6-0.6-0.9-0.9c-0.2-0.2-0.4-0.4-0.6-0.6
	c-0.6-0.6-1.2-1.2-1.7-1.8c0,0,0,0-0.1-0.1c-1.1-1.2-2.3-2.4-3.4-3.7c0,0-0.1-0.1-0.1-0.1c-0.7-0.8-1.5-1.6-2.2-2.4
	c-1.5-1.6-2.9-3.3-4.3-4.9c-1.4-1.6-2.7-3.2-3.9-4.7c-1.9-2.3-3.6-4.6-5-6.7c-2.9-4.2-4.9-7.9-5.2-10.5c0-0.4-0.1-0.7,0-1
	c0-0.1,0-0.2,0-0.2c0-0.1,0-0.3,0.1-0.4c0.5-2.1,2.9-2.9,7.8-1.9c4.7,0.9,9,2.9,12.8,5.7c1.5,1.1,3,2.3,4.4,3.6
	c9.4,9,15.7,22.4,19.6,33.6c0.1,0.3,0.2,0.5,0.3,0.8c0.1,0.2,0.1,0.4,0.2,0.6c0.5,1.4,0.9,2.8,1.3,4.1c0.7,2.2,1.2,4.2,1.7,5.9
	C295.7,179.1,295.6,179.6,295.4,180.1z M321.9,209.2c0,0-2.6,0-4,1.4c-0.4,0.3-0.6,0.8-0.7,1.3c0,0.1,0,0.3-0.1,0.4s0,0.3,0,0.5
	c0,1.7-0.8,3.2-2,4.1c-0.7,0.5-1.6,0.8-2.5,0.8c-1.4,0-2.6-0.7-3.5-1.8c-0.7-0.9-1.1-2-1.1-3.2c0,0,0-0.4,0.1-0.9c0,0,0,0,0,0
	c0,0,0-0.1,0-0.1c0-0.1,0-0.2,0.1-0.4c0-0.1,0.1-0.3,0.1-0.4c0.1-0.3,0.2-0.6,0.3-0.9c0.3-0.6,0.7-1.3,1.2-1.9
	c0.3-0.3,0.6-0.6,1-0.9c1.1-0.8,2.7-1.5,4.9-1.6c1.2-0.1,2.3,0.1,3.4,0.5c0.4,0.2,0.7,0.4,1,0.6c0.1,0.1,0.2,0.2,0.4,0.3
	C321.2,207.7,321.7,208.4,321.9,209.2C321.9,209.2,321.9,209.2,321.9,209.2z M348.2,212.8c0,0.7-0.1,1.3-0.4,1.9s-0.6,1.1-1,1.6
	c-0.4,0.4-0.9,0.8-1.4,1.1c-0.5,0.2-1.1,0.4-1.8,0.4c-1.3,0-2.4-0.5-3.2-1.4c0,0,0,0,0,0c-0.2-0.2-0.4-0.5-0.5-0.7
	c-0.2-0.4-0.4-0.8-0.6-1.3c-0.1-0.5-0.2-1-0.2-1.5c0-0.2,0-0.4,0-0.6c0-0.2-0.1-0.4-0.1-0.5c0,0,0,0,0,0c-0.1-0.1-0.1-0.3-0.2-0.4
	c-1.1-1.9-4.4-2-4.4-2c0-0.2,0.1-0.4,0.2-0.6c0.2-0.6,0.7-1.1,1.2-1.5c0.2-0.1,0.3-0.3,0.5-0.4c0.6-0.4,1.3-0.7,2-0.9
	c0.4-0.1,0.7-0.1,1.1-0.2c0.4,0,0.7,0,1.1,0c5.9,0.4,7.3,4.3,7.6,6.1c0,0,0,0.1,0,0.1c0,0,0,0.1,0,0.1c0,0.3,0.1,0.5,0.1,0.6
	C348.2,212.8,348.2,212.8,348.2,212.8L348.2,212.8z M362.5,181.5c-0.4-0.1-0.8-0.3-1.1-0.6c-0.1-0.1-0.3-0.3-0.4-0.4c0,0,0,0,0,0
	c-0.3-0.5-0.5-1.1-0.3-1.8c0-0.1,0-0.1,0.1-0.2c1-3.6,2.3-8.1,4.1-12.9c0.8-2.3,1.8-4.7,2.8-7.1c4.5-10.4,11-21.3,19.9-28.1
	c0.9-0.7,1.8-1.3,2.7-1.9s1.9-1.1,2.8-1.6c2.5-1.3,5.2-2.2,8-2.8c5.7-1.1,8,0.2,8,3.1c0,0.3,0,0.7-0.1,1c-0.2,1.1-0.7,2.3-1.3,3.7
	c-0.9,1.9-2.2,4-3.7,6.2c-2.2,3.2-5.1,6.8-8.2,10.5c-1,1.2-2.1,2.5-3.2,3.7c-3.9,4.4-8.1,8.9-12.1,13c-0.6,0.6-1.2,1.2-1.7,1.8
	c-1.6,1.6-3.1,3.2-4.6,4.6c0,0,0,0,0,0c-0.5,0.5-1.1,1.1-1.6,1.6c-2.8,2.8-5.4,5.3-7.5,7.3c-0.1,0.1-0.1,0.1-0.2,0.2
	C364,181.6,363.2,181.7,362.5,181.5z"/>
</svg>
